<?xml version="1.0" encoding="UTF-8" standalone="no"?>
<!DOCTYPE svg PUBLIC "-//W3C//DTD SVG 1.1//EN" "http://www.w3.org/Graphics/SVG/1.1/DTD/svg11.dtd">
<svg width="100%" height="100%" viewBox="0 0 83 23" version="1.1" xmlns="http://www.w3.org/2000/svg" xmlns:xlink="http://www.w3.org/1999/xlink" xml:space="preserve" xmlns:serif="http://www.serif.com/" style="fill-rule:evenodd;clip-rule:evenodd;stroke-linejoin:round;stroke-miterlimit:2;">
    <g transform="matrix(1,0,0,1,-30.4829,-7.59432)">
        <g transform="matrix(1,0,0,1,24.3776,-10.5123)">
            <path d="M14.133,29.755C14.656,29.958 15.16,30.071 15.644,30.095L15.644,26.759C15.262,26.291 15.055,25.78 15.023,25.226L15.023,25.086C15.031,24.813 15.074,24.532 15.152,24.243C15.23,23.955 15.443,23.524 15.79,22.95C16.137,22.377 16.343,21.875 16.406,21.446C16.014,21.345 15.649,21.294 15.311,21.294C14.731,21.294 14.209,21.391 13.746,21.585C13.746,21.957 13.816,22.244 13.956,22.445C14.096,22.646 14.266,22.747 14.466,22.747C14.642,22.747 14.738,22.708 14.754,22.63L14.66,22.513C14.66,22.411 14.701,22.36 14.782,22.36C14.888,22.36 14.941,22.419 14.941,22.536C14.941,22.599 14.894,22.667 14.799,22.741C14.705,22.816 14.591,22.853 14.457,22.853C14.189,22.853 13.964,22.737 13.783,22.506C13.602,22.275 13.512,21.999 13.512,21.678C12.66,22.109 12.074,22.774 11.754,23.673C11.629,24.025 11.566,24.4 11.566,24.798L11.566,24.868C11.566,25.759 11.898,26.47 12.562,27.001L12.644,27.083L12.597,27.13C12.496,27.13 12.275,26.919 11.935,26.497C11.596,26.075 11.426,25.517 11.426,24.821L11.426,24.728C11.426,24.306 11.488,23.931 11.613,23.603C11.98,22.648 12.613,21.968 13.512,21.561C13.535,21.341 13.582,21.149 13.652,20.985C13.207,20.875 12.918,20.562 12.785,20.045C11.111,20.75 10.045,21.854 9.585,23.357C9.508,23.614 9.469,23.935 9.469,24.318C9.469,25.677 9.769,26.775 10.371,27.61L10.453,27.704C10.656,27.954 10.918,28.193 11.238,28.419L11.215,28.478C10.847,28.243 10.566,28.009 10.371,27.775L10.301,27.681C9.652,26.837 9.328,25.724 9.328,24.341C9.328,24.036 9.371,23.716 9.457,23.38C9.863,21.775 10.965,20.566 12.762,19.751C12.793,19.25 12.965,18.853 13.279,18.559C13.592,18.265 13.969,18.118 14.408,18.118C15.168,18.118 15.768,18.532 16.207,19.36C17.914,19.626 19.288,20.271 20.329,21.294C21.37,22.318 21.89,23.466 21.89,24.739C21.89,25.864 21.582,26.86 20.965,27.728C20.347,28.595 19.476,29.255 18.351,29.708C18.648,29.646 18.996,29.614 19.394,29.614C20.582,29.614 21.639,30.045 22.564,30.905C23.49,31.766 23.953,32.744 23.953,33.839C23.953,34.935 23.529,35.823 22.681,36.503C21.834,37.184 20.722,37.525 19.347,37.525C18.59,37.525 17.904,37.386 17.291,37.109C16.678,36.831 16.209,36.517 15.885,36.165C15.56,35.814 15.398,35.614 15.398,35.568L15.445,35.521L15.504,35.591C16.441,36.786 17.699,37.384 19.277,37.384C20.543,37.384 21.588,37.057 22.412,36.404C23.236,35.751 23.648,34.868 23.648,33.757C23.648,32.717 23.222,31.788 22.371,30.97C21.519,30.152 20.488,29.743 19.277,29.743C18.879,29.743 18.433,29.796 17.941,29.902C17.816,29.925 17.754,29.917 17.754,29.879C17.746,29.842 17.801,29.804 17.918,29.766C19.082,29.391 19.988,28.784 20.637,27.944C21.285,27.105 21.609,26.114 21.609,24.974C21.609,23.677 21.137,22.55 20.191,21.593C19.246,20.636 17.972,20.025 16.371,19.759C16.543,20.212 16.629,20.716 16.629,21.271L16.629,21.341C17.605,21.622 18.381,22.101 18.955,22.777C19.529,23.452 19.816,24.232 19.816,25.114C19.816,25.755 19.602,26.323 19.174,26.819C18.745,27.316 18.196,27.587 17.526,27.634C17.409,27.642 17.312,27.642 17.234,27.634C16.673,27.579 16.186,27.337 15.773,26.907L15.773,30.095C16.1,30.095 16.42,30.071 16.731,30.025L16.93,30.048L16.755,30.121C16.443,30.174 16.116,30.2 15.773,30.2L15.773,30.775C16.062,30.587 16.398,30.396 16.781,30.2C16.89,30.146 16.949,30.138 16.957,30.177C16.972,30.216 16.922,30.263 16.805,30.318C16.5,30.458 16.156,30.657 15.773,30.915L15.773,31.806C15.969,32.001 16.066,32.122 16.066,32.169L16.043,32.216C15.926,32.083 15.836,31.985 15.773,31.923L15.773,33.318C15.773,33.443 15.752,33.505 15.709,33.505C15.666,33.505 15.644,33.443 15.644,33.318L15.644,31.806C15.566,31.712 15.414,31.56 15.187,31.349C15.109,31.427 15.039,31.493 14.976,31.548L14.93,31.525C14.976,31.454 15.039,31.38 15.117,31.302C14.789,30.974 14.375,30.677 13.875,30.411L13.535,30.247C13.074,30.021 12.594,29.86 12.094,29.767L11.637,29.696C11.535,29.681 11.367,29.673 11.133,29.673C9.773,29.673 8.662,30 7.799,30.654C6.935,31.307 6.504,32.206 6.504,33.348C6.504,34.523 6.969,35.469 7.9,36.188C8.831,36.907 9.966,37.267 11.304,37.267C11.679,37.267 12.082,37.228 12.512,37.15C12.645,36.634 12.88,36.208 13.216,35.872C13.553,35.536 13.885,35.368 14.214,35.368C14.535,35.368 14.695,35.513 14.695,35.802C14.695,36.107 14.523,36.384 14.18,36.634C13.836,36.884 13.359,37.079 12.75,37.22C12.719,37.47 12.703,37.661 12.703,37.794C12.703,38.458 12.886,39.005 13.252,39.435C13.618,39.864 14.105,40.079 14.712,40.079C15.227,40.079 15.659,39.903 16.009,39.552C16.36,39.2 16.535,38.782 16.535,38.298C16.535,38.001 16.449,37.739 16.277,37.513C16.105,37.286 15.918,37.173 15.715,37.173C15.59,37.173 15.512,37.208 15.48,37.278C15.449,37.349 15.433,37.458 15.433,37.607C15.433,37.732 15.384,37.794 15.286,37.794C15.166,37.794 15.105,37.732 15.105,37.607C15.105,37.482 15.17,37.36 15.299,37.243C15.428,37.126 15.57,37.068 15.726,37.068C15.976,37.068 16.191,37.194 16.371,37.448C16.551,37.702 16.64,37.989 16.64,38.31C16.64,38.825 16.447,39.271 16.059,39.646C15.671,40.021 15.207,40.208 14.666,40.208C14.008,40.208 13.471,39.978 13.056,39.517C12.641,39.056 12.433,38.47 12.433,37.759C12.433,37.665 12.449,37.505 12.48,37.278C12.019,37.372 11.569,37.419 11.13,37.419C9.776,37.419 8.6,37.053 7.602,36.322C6.604,35.59 6.105,34.595 6.105,33.335C6.105,32.247 6.586,31.344 7.548,30.624C8.511,29.904 9.664,29.544 11.01,29.544C11.182,29.544 11.405,29.56 11.678,29.592L12.089,29.663C12.613,29.759 13.102,29.922 13.556,30.153L13.92,30.341C14.389,30.614 14.811,30.911 15.187,31.232C15.406,31.044 15.558,30.923 15.644,30.868L15.644,30.2C15.269,30.192 14.758,30.074 14.109,29.849L13.945,29.743C13.953,29.704 14.015,29.708 14.133,29.755ZM14.121,29.86C14.074,29.962 14.012,30.122 13.933,30.341L13.887,30.411C13.746,30.739 13.601,31.013 13.453,31.232C14.219,31.638 14.601,32.15 14.601,32.767C14.601,33.298 14.453,33.698 14.157,33.968C13.861,34.237 13.638,34.372 13.488,34.372L13.418,34.349L13.488,34.267C13.746,34.079 13.875,33.806 13.875,33.446C13.875,32.923 13.523,32.474 12.82,32.099C11.888,33.169 10.945,33.704 9.989,33.704C9.378,33.704 8.881,33.56 8.497,33.271C8.114,32.982 7.922,32.63 7.922,32.216C7.922,31.911 8.022,31.655 8.222,31.448C8.423,31.241 8.676,31.138 8.983,31.138C9.211,31.138 9.407,31.206 9.572,31.343C9.738,31.48 9.82,31.65 9.82,31.853C9.82,32.079 9.749,32.265 9.606,32.409C9.463,32.554 9.293,32.626 9.095,32.626C8.825,32.626 8.571,32.501 8.333,32.249L8.25,32.181L8.215,32.296C8.215,32.711 8.372,33.028 8.686,33.247C9,33.466 9.44,33.575 10.005,33.575C10.414,33.575 10.865,33.438 11.36,33.162C11.855,32.887 12.302,32.509 12.703,32.028C12.226,31.747 11.904,31.485 11.736,31.243C11.568,31.001 11.484,30.724 11.484,30.411C11.484,30.185 11.538,29.946 11.646,29.696L11.693,29.603C11.847,29.321 12.023,29.095 12.22,28.923C12.417,28.751 12.535,28.665 12.574,28.665L12.644,28.712L12.562,28.794C12.25,29.021 12.094,29.29 12.094,29.603L12.094,29.767C12.125,30.259 12.512,30.716 13.254,31.138C13.413,30.756 13.508,30.459 13.538,30.249L13.561,30.155C13.606,29.89 13.629,29.633 13.629,29.383C13.629,28.486 13.447,27.613 13.083,26.763C12.719,25.912 12.212,25.261 11.562,24.809L11.422,24.739C10.921,24.45 10.396,24.306 9.848,24.306C9.668,24.306 9.535,24.314 9.449,24.329L9.32,24.352C8.663,24.438 8.146,24.667 7.77,25.04C7.395,25.412 7.207,25.866 7.207,26.402C7.207,26.899 7.375,27.307 7.713,27.625C8.05,27.943 8.485,28.103 9.018,28.103C9.511,28.103 9.935,27.96 10.288,27.675L10.358,27.606C10.436,27.544 10.542,27.44 10.676,27.294L10.722,27.341C10.722,27.388 10.629,27.509 10.441,27.704L10.359,27.775C9.976,28.064 9.523,28.208 9,28.208C8.359,28.208 7.847,27.997 7.465,27.575C7.082,27.153 6.89,26.646 6.89,26.052C6.89,25.528 7.131,24.995 7.612,24.452C8.093,23.909 8.708,23.552 9.459,23.38L9.576,23.357C9.795,23.325 9.971,23.31 10.104,23.31C10.659,23.31 11.164,23.407 11.617,23.603L11.758,23.673C12.782,24.126 13.552,24.911 14.069,26.028C14.24,25.708 14.56,25.396 15.028,25.092L15.145,24.998C15.441,24.795 15.909,24.52 16.549,24.172C17.189,23.825 17.6,23.533 17.784,23.297C17.967,23.061 18.086,22.807 18.14,22.536C18.187,22.536 18.211,22.56 18.211,22.607C18.211,22.877 18.107,23.127 17.9,23.355C17.693,23.583 17.59,23.728 17.59,23.79C17.59,23.939 17.767,24.159 18.123,24.452C18.478,24.745 18.711,24.995 18.82,25.202C18.93,25.409 18.984,25.61 18.984,25.806C18.984,26.392 18.543,26.97 17.66,27.54L17.519,27.634L16.582,28.161C17.199,28.263 17.64,28.798 17.906,29.767L17.953,29.943C18.008,30.146 18.072,30.46 18.146,30.886C18.221,31.312 18.301,31.638 18.387,31.864C18.472,32.091 18.627,32.277 18.849,32.421C19.072,32.566 19.312,32.638 19.57,32.638C19.828,32.638 20.062,32.505 20.273,32.239L20.344,32.169L20.379,32.216C20.379,32.301 20.248,32.478 19.986,32.746C19.724,33.014 19.375,33.281 18.937,33.545C18.5,33.809 18.082,34.097 17.683,34.407C17.683,34.369 17.762,34.28 17.918,34.142C18.074,34.003 18.269,33.842 18.504,33.657L18.364,33.552C17.905,33.271 17.58,32.925 17.389,32.515C17.199,32.105 17.058,31.657 16.969,31.173C16.88,30.689 16.823,30.403 16.8,30.318L16.777,30.2L16.753,30.13L16.73,30.036C16.551,29.333 16.232,28.962 15.773,28.923L15.656,28.923C15.461,28.923 15.269,29.036 15.082,29.263L15.035,29.216C15.035,29.091 15.242,28.876 15.656,28.571L15.773,28.501C15.976,28.353 16.221,28.21 16.506,28.073C16.791,27.937 17.035,27.79 17.238,27.634L17.332,27.54C17.668,27.228 17.836,26.849 17.836,26.403C17.836,26.2 17.793,26.001 17.707,25.806C17.621,25.61 17.422,25.402 17.109,25.179C16.797,24.956 16.578,24.7 16.453,24.411C16.375,24.411 16.148,24.525 15.772,24.751L15.654,24.821L15.149,25.138L15.032,25.232C14.672,25.474 14.366,25.786 14.116,26.169C14.346,26.693 14.461,27.22 14.461,27.751C14.461,28.392 14.355,29.064 14.144,29.767L14.121,29.86ZM17.666,27.54C18.25,27.462 18.731,27.191 19.109,26.726C19.487,26.261 19.676,25.739 19.676,25.161C19.676,24.278 19.402,23.515 18.855,22.87C18.308,22.226 17.558,21.767 16.605,21.493C16.574,21.876 16.32,22.482 15.844,23.31C15.367,24.138 15.133,24.7 15.14,24.997L15.14,25.138C15.164,25.693 15.332,26.181 15.644,26.603L15.644,24.821C15.644,24.72 15.666,24.669 15.709,24.669C15.752,24.669 15.773,24.696 15.773,24.751L15.773,26.743C16.202,27.22 16.72,27.485 17.327,27.54C17.46,27.556 17.573,27.556 17.666,27.54ZM15.644,31.689L15.644,30.997C15.472,31.114 15.344,31.216 15.258,31.302L15.644,31.689ZM12.762,37.068C13.871,36.794 14.426,36.4 14.426,35.884C14.426,35.665 14.273,35.556 13.969,35.556C13.758,35.556 13.529,35.694 13.283,35.972C13.037,36.249 12.863,36.614 12.762,37.068ZM21.797,33.845L21.902,33.845C21.98,33.845 22.019,33.888 22.019,33.974C22.019,34.232 21.97,34.36 21.872,34.36C21.759,34.36 21.702,34.333 21.702,34.278C21.679,34.385 21.648,34.471 21.609,34.536C21.656,34.581 21.68,34.626 21.68,34.671C21.68,34.777 21.606,34.829 21.459,34.829L21.387,34.923L21.41,35.028C21.41,35.122 21.336,35.169 21.187,35.169C20.719,35.638 20.086,35.872 19.289,35.872C18.344,35.872 17.625,35.642 17.133,35.181C16.64,34.72 16.394,34.275 16.394,33.845L16.435,33.657L16.476,33.868C16.476,34.251 16.721,34.659 17.209,35.093C17.697,35.527 18.394,35.743 19.301,35.743C20.105,35.743 20.715,35.528 21.129,35.099L21.105,35.028C21.105,34.911 21.172,34.853 21.305,34.853L21.351,34.782C21.32,34.752 21.305,34.715 21.305,34.67C21.305,34.55 21.383,34.489 21.539,34.489C21.57,34.427 21.578,34.376 21.562,34.337C21.453,34.305 21.398,34.245 21.398,34.157C21.398,33.91 21.446,33.786 21.541,33.786L21.621,33.798L21.691,33.798L21.715,33.693C21.621,33.668 21.574,33.612 21.574,33.523C21.582,33.426 21.633,33.358 21.726,33.318C21.726,33.271 21.719,33.232 21.703,33.2C21.625,33.2 21.586,33.153 21.586,33.06C21.586,32.989 21.608,32.939 21.654,32.907C21.507,32.423 21.246,32.03 20.871,31.73C20.496,31.429 20.078,31.278 19.617,31.278L19.172,31.226L19.617,31.173C20.117,31.173 20.562,31.33 20.953,31.645C21.344,31.96 21.607,32.373 21.744,32.884C21.842,32.884 21.89,32.94 21.89,33.053C21.89,33.121 21.855,33.166 21.785,33.189L21.808,33.318C21.902,33.35 21.949,33.418 21.949,33.523C21.949,33.604 21.906,33.66 21.82,33.693L21.797,33.845ZM10.793,35.31L10.992,35.31C11.562,35.31 12.074,35.177 12.527,34.911L12.621,34.853L12.668,34.9C12.668,34.962 12.486,35.064 12.123,35.204C11.76,35.345 11.375,35.415 10.969,35.415L10.793,35.415C10.778,35.478 10.725,35.509 10.635,35.509C10.567,35.509 10.522,35.466 10.5,35.38L10.406,35.38C10.365,35.536 10.312,35.614 10.246,35.614C10.165,35.591 10.125,35.556 10.125,35.509L10.148,35.345L10.066,35.321C10.05,35.47 10.009,35.544 9.943,35.544C9.853,35.544 9.808,35.511 9.808,35.445L9.832,35.263L9.738,35.239C9.715,35.286 9.668,35.31 9.597,35.31C9.504,35.31 9.457,35.255 9.457,35.146C8.879,34.919 8.449,34.628 8.168,34.273C7.887,33.917 7.746,33.681 7.746,33.564L7.798,33.493L7.863,33.575C8.204,34.294 8.743,34.794 9.48,35.075L9.621,35.028C9.715,35.028 9.762,35.075 9.762,35.169L9.832,35.193C9.873,35.06 9.914,34.993 9.955,34.993C10.06,34.993 10.113,35.025 10.113,35.087L10.09,35.239L10.148,35.263C10.181,35.13 10.222,35.064 10.271,35.064C10.377,35.064 10.43,35.097 10.43,35.165L10.406,35.298L10.5,35.298C10.545,35.251 10.597,35.228 10.658,35.228C10.733,35.228 10.778,35.255 10.793,35.31ZM16.078,19.337C15.673,18.61 15.109,18.247 14.385,18.247C14.012,18.247 13.687,18.38 13.41,18.647C13.134,18.913 12.996,19.249 12.996,19.653C13.681,19.396 14.327,19.267 14.934,19.267C15.331,19.267 15.712,19.29 16.078,19.337ZM16.453,20.828C16.469,20.526 16.398,20.161 16.242,19.735C15.859,19.673 15.43,19.642 14.953,19.642C14.305,19.642 13.656,19.753 13.008,19.976C13.101,20.495 13.332,20.794 13.699,20.872C13.801,20.7 13.922,20.566 14.062,20.468C14.203,20.37 14.324,20.321 14.426,20.321C14.66,20.321 14.777,20.388 14.777,20.521C14.777,20.638 14.677,20.747 14.476,20.849C14.275,20.95 14.067,21.001 13.85,21.001C13.819,21.079 13.789,21.232 13.758,21.458C14.242,21.263 14.777,21.165 15.363,21.165C15.668,21.165 16.023,21.204 16.43,21.282L16.453,20.828ZM13.898,20.907C14.109,20.907 14.285,20.862 14.426,20.773C14.566,20.683 14.637,20.61 14.637,20.556C14.637,20.493 14.558,20.462 14.402,20.462C14.355,20.462 14.279,20.501 14.174,20.579C14.068,20.657 13.976,20.767 13.898,20.907Z" style="fill-rule:nonzero;"/>
            <path d="M27,31.818L27,29.577C27,29.507 26.926,29.402 26.777,29.262C26.629,29.122 26.519,29.052 26.449,29.052C26.371,29.052 26.234,29.153 26.039,29.357L25.992,29.31C25.992,29.153 26.346,28.825 27.054,28.325C27.298,28.153 27.526,27.892 27.738,27.54C27.785,27.54 27.808,27.564 27.808,27.61C27.808,27.665 27.695,27.857 27.469,28.185C27.469,28.247 27.577,28.374 27.794,28.566C28.01,28.757 28.18,28.853 28.304,28.853L28.64,28.735L28.687,28.782C28.156,29.088 27.89,29.288 27.89,29.382L27.89,32.249C27.89,32.39 27.972,32.529 28.137,32.667C28.301,32.804 28.426,32.872 28.512,32.872C28.605,32.872 28.773,32.739 29.015,32.474L29.062,32.544C29.062,32.607 28.861,32.839 28.459,33.241C28.056,33.644 27.722,34.025 27.457,34.384L27.41,34.314C27.41,34.258 27.453,34.18 27.539,34.08C27.625,33.979 27.668,33.893 27.668,33.821L27.527,33.646C27.176,33.318 27,33.001 27,32.696L27,32.052C26.712,32.523 26.376,32.91 25.992,33.212C25.607,33.514 25.228,33.897 24.855,34.36C24.801,34.36 24.773,34.337 24.773,34.29C24.773,34.25 24.82,34.172 24.914,34.056C25.008,33.94 25.055,33.854 25.055,33.798C25.055,33.642 24.907,33.472 24.611,33.288C24.316,33.105 24.109,33.013 23.991,33.013C23.92,33.013 23.817,33.052 23.683,33.13L23.625,33.083C23.625,33.021 23.704,32.95 23.863,32.872C24.243,32.685 24.433,32.411 24.433,32.052L24.433,29.462C24.433,29.337 24.372,29.204 24.251,29.064C24.129,28.923 24.033,28.853 23.965,28.853C23.837,28.853 23.619,29.028 23.308,29.38L23.262,29.31C23.262,29.168 23.51,28.879 24.006,28.442C24.502,28.005 24.781,27.786 24.844,27.786L24.89,27.857L24.703,28.114L24.797,28.185C25.148,28.381 25.324,28.627 25.324,28.925L25.324,32.179C25.324,32.32 25.402,32.475 25.558,32.643C25.715,32.811 25.867,32.896 26.015,32.896C26.203,32.896 26.531,32.536 27,31.818Z" style="fill-rule:nonzero;"/>
            <path d="M30.082,28.021C30.082,27.38 30.139,26.915 30.253,26.626C30.367,26.337 30.636,26.036 31.061,25.724C31.486,25.411 31.722,25.255 31.769,25.255L31.816,25.332L31.793,25.384C31.519,25.633 31.332,25.866 31.23,26.084C31.129,26.302 31.078,26.691 31.078,27.251L31.078,28.021L31.769,28.021C31.871,28.021 31.922,28.069 31.922,28.167C31.922,28.265 31.871,28.314 31.769,28.314L31.078,28.314L31.078,30.264C31.078,31.282 30.547,32.132 29.485,32.813C29.423,32.852 29.356,32.892 29.285,32.931L29.25,32.872L29.262,32.79C29.293,32.775 29.379,32.724 29.519,32.637C29.66,32.551 29.789,32.383 29.906,32.132C30.023,31.882 30.082,31.404 30.082,30.699L30.082,28.314L29.555,28.314C29.461,28.314 29.414,28.265 29.414,28.167C29.414,28.069 29.461,28.021 29.555,28.021L30.082,28.021ZM32.472,32.802L32.519,32.849C32.024,33.232 31.611,33.591 31.281,33.927C30.95,34.263 30.766,34.431 30.726,34.431L30.68,34.384C30.859,34.175 30.949,34.038 30.949,33.974C30.949,33.841 30.835,33.653 30.606,33.411C30.377,33.169 30.041,33.048 29.599,33.048C29.544,33.048 29.405,33.126 29.18,33.282C29.117,33.282 29.086,33.255 29.086,33.2C29.086,33.161 29.298,33.012 29.721,32.755C30.145,32.497 30.482,32.368 30.733,32.368C30.929,32.368 31.333,32.603 31.945,33.071C32.008,33.071 32.097,33.027 32.215,32.937C32.332,32.847 32.418,32.802 32.472,32.802Z" style="fill-rule:nonzero;"/>
            <path d="M34.301,29.603C34.456,29.43 34.687,29.222 34.994,28.978C35.3,28.734 35.539,28.524 35.71,28.347C35.881,28.17 36.048,27.921 36.211,27.599C36.265,27.599 36.293,27.63 36.293,27.693C36.293,27.749 36.25,27.859 36.164,28.021C36.164,28.169 36.238,28.314 36.385,28.454C36.532,28.595 36.699,28.665 36.885,28.665C37.071,28.665 37.35,28.505 37.722,28.185C37.777,28.185 37.805,28.208 37.805,28.255C37.508,28.516 37.238,28.774 36.996,29.03C36.754,29.287 36.496,29.415 36.222,29.415C36.027,29.415 35.738,29.235 35.355,28.876C34.832,29.295 34.48,29.619 34.301,29.849L34.301,31.818C34.301,32.364 34.524,32.739 34.971,32.943L35.121,33.063L35.029,33.118C34.63,33.181 34.247,33.513 33.879,34.112C33.756,34.293 33.663,34.376 33.597,34.36C33.746,34.049 33.82,33.862 33.82,33.798C33.82,33.657 33.735,33.507 33.565,33.347C33.394,33.187 33.255,33.107 33.147,33.107C33.046,33.107 32.928,33.138 32.792,33.2C32.657,33.263 32.57,33.294 32.531,33.294C32.484,33.294 32.461,33.267 32.461,33.212L32.681,33.071C33.167,32.868 33.41,32.587 33.41,32.228L33.41,26.345C33.41,25.689 33.615,25.126 34.025,24.657C34.435,24.189 34.972,23.954 35.637,23.954C36.082,23.954 36.441,24.075 36.715,24.318C36.988,24.56 37.125,24.821 37.125,25.103C37.125,25.642 36.908,25.911 36.474,25.911C36.301,25.911 36.153,25.85 36.031,25.728C35.909,25.606 35.847,25.45 35.847,25.261C35.847,24.946 36.022,24.745 36.37,24.658L36.515,24.587C36.515,24.501 36.443,24.403 36.297,24.294C36.152,24.185 35.926,24.13 35.62,24.13C35.212,24.13 34.89,24.244 34.654,24.471C34.418,24.699 34.301,25.162 34.301,25.86L34.301,29.603ZM36.75,30.247C36.75,30.552 36.849,30.882 37.049,31.237C37.248,31.593 37.347,31.982 37.347,32.403C37.347,32.935 37.14,33.53 36.726,34.191C36.312,34.851 35.832,35.443 35.285,35.966C34.738,36.489 34.433,36.751 34.371,36.751L34.324,36.669L34.512,36.482C35.824,35.32 36.48,34.224 36.48,33.194C36.48,32.952 36.4,32.64 36.24,32.258C36.08,31.876 36,31.548 36,31.275C36,30.69 36.18,30.173 36.54,29.725C36.899,29.276 37.126,29.052 37.219,29.052C37.273,29.052 37.301,29.075 37.301,29.122L37.23,29.204C36.91,29.564 36.75,29.911 36.75,30.247Z" style="fill-rule:nonzero;"/>
            <path d="M47.32,23.989C46.984,24.286 46.816,24.646 46.816,25.068C46.816,25.482 46.961,25.872 47.25,26.239L47.367,26.357C47.453,26.458 47.672,26.673 48.023,27.001C48.375,27.329 48.613,27.646 48.738,27.95C48.863,28.255 48.926,28.556 48.926,28.853C48.926,29.665 48.54,30.372 47.77,30.974L47.676,31.044L47.628,31.068L47.534,31.138C47.291,31.31 47.122,31.396 47.027,31.396L46.98,31.349C47.183,31.239 47.332,31.146 47.426,31.068L47.508,30.997C47.57,30.935 47.617,30.876 47.648,30.821L47.742,30.704C47.937,30.439 48.035,30.118 48.035,29.743C48.035,29.478 47.975,29.214 47.855,28.952C47.735,28.691 47.451,28.353 47.003,27.939C46.555,27.525 46.265,27.194 46.134,26.948C46.002,26.702 45.921,26.458 45.89,26.216L45.867,26.122L45.867,25.923C45.867,25.103 46.291,24.415 47.138,23.86C47.185,23.829 47.224,23.806 47.255,23.79C47.512,23.657 47.749,23.556 47.967,23.485C48.184,23.415 48.313,23.38 48.351,23.38C48.398,23.38 48.422,23.4 48.422,23.439C47.984,23.595 47.648,23.751 47.414,23.907L47.32,23.989ZM47.133,23.86C46.461,23.478 45.75,23.286 45,23.286C44.945,23.597 44.918,23.924 44.918,24.267C44.918,25.029 45.008,25.659 45.187,26.157C45.359,26.157 45.582,26.142 45.855,26.11C46.262,26.064 46.726,26.103 47.25,26.228C47.875,26.384 48.379,26.581 48.762,26.819C49.144,27.058 49.336,27.2 49.336,27.247L49.312,27.294L49.219,27.235C48.672,26.821 48.055,26.528 47.367,26.357C46.992,26.263 46.496,26.216 45.879,26.216C45.715,26.216 45.492,26.232 45.211,26.263C45.383,26.747 45.76,27.3 46.342,27.921C46.924,28.542 47.295,29.054 47.455,29.456C47.615,29.859 47.715,30.275 47.754,30.704L47.777,30.974L47.777,31.161C47.988,31.31 48.246,31.439 48.551,31.548C49.363,30.704 49.769,29.614 49.769,28.278C49.769,27.825 49.707,27.368 49.582,26.907C49.16,26.79 48.83,26.571 48.592,26.251C48.353,25.931 48.234,25.583 48.234,25.208C48.234,25.044 48.258,24.9 48.305,24.775C48,24.446 47.672,24.185 47.32,23.989L47.133,23.86ZM45.058,26.193C44.847,25.653 44.742,25.013 44.742,24.271C44.742,23.927 44.765,23.599 44.812,23.286C44.338,23.318 43.905,23.446 43.512,23.673C43.683,23.954 43.769,24.243 43.769,24.54C43.769,24.743 43.722,24.927 43.629,25.091C44.126,25.271 44.434,25.661 44.552,26.263L45.058,26.193ZM44.332,26.298C44.262,25.743 44,25.376 43.547,25.196C43.32,25.47 43.101,25.607 42.89,25.607C42.765,25.607 42.703,25.54 42.703,25.407C42.703,25.142 42.887,25.009 43.254,25.009C43.371,25.009 43.453,25.017 43.5,25.032C43.562,24.884 43.594,24.7 43.594,24.482C43.594,24.239 43.519,23.989 43.371,23.732C42.527,24.278 42.105,25.11 42.105,26.228C42.105,26.517 42.168,26.79 42.293,27.048C42.879,26.728 43.558,26.478 44.332,26.298ZM49.547,26.814C49.344,26.118 48.957,25.462 48.387,24.845C48.355,24.97 48.34,25.091 48.34,25.208C48.34,25.544 48.447,25.862 48.662,26.163C48.877,26.464 49.172,26.681 49.547,26.814ZM43.406,25.161C43.351,25.146 43.25,25.138 43.101,25.138C42.953,25.138 42.879,25.2 42.879,25.325C42.879,25.388 42.922,25.419 43.008,25.419C43.172,25.419 43.305,25.333 43.406,25.161ZM44.344,26.544L44.344,26.427C43.625,26.591 42.976,26.86 42.398,27.235C42.617,27.556 42.898,27.716 43.242,27.716C43.547,27.716 43.806,27.603 44.021,27.376C44.236,27.15 44.344,26.872 44.344,26.544ZM50.543,31.361L50.379,26.989L50.162,26.989C50.042,26.989 49.888,26.974 49.699,26.943C49.84,27.387 49.91,27.839 49.91,28.299C49.91,28.992 49.81,29.588 49.611,30.087C49.412,30.586 49.09,31.085 48.644,31.583C48.949,31.646 49.195,31.677 49.383,31.677C49.812,31.677 50.199,31.572 50.543,31.361ZM51.211,30.751C51.39,30.493 51.48,30.239 51.48,29.989C51.48,29.778 51.414,29.673 51.281,29.673C51.14,29.673 51.07,29.802 51.07,30.06C51.07,30.302 51.117,30.532 51.211,30.751ZM52.143,31.911C51.66,31.653 51.322,31.349 51.127,30.997C51.01,31.13 50.858,31.263 50.672,31.396L50.672,32.028L50.62,32.204L50.543,31.478C50.199,31.681 49.828,31.782 49.43,31.782C48.859,31.782 48.308,31.638 47.777,31.349C47.777,31.63 47.754,31.904 47.707,32.171C47.613,32.68 47.461,33.108 47.25,33.453C47,33.853 46.693,34.161 46.33,34.377C45.967,34.592 45.617,34.7 45.281,34.7C44.953,34.7 44.695,34.62 44.508,34.46C44.32,34.3 44.226,34.134 44.226,33.962C44.226,33.626 44.365,33.458 44.644,33.458C44.834,33.458 44.93,33.558 44.93,33.757C44.93,33.895 44.754,33.999 44.402,34.068C44.402,34.185 44.479,34.302 44.632,34.419C44.784,34.536 44.998,34.595 45.272,34.595C45.563,34.595 45.884,34.491 46.237,34.284C46.59,34.077 46.895,33.778 47.154,33.388C47.421,32.982 47.581,32.552 47.636,32.099C47.668,31.825 47.683,31.591 47.683,31.396L47.683,31.232L47.443,31.068L47.374,30.997L47.282,31.021C47.19,31.021 47.144,30.954 47.144,30.821L47.12,30.775L47.023,30.798C46.885,30.798 46.816,30.743 46.816,30.634L46.84,30.54L46.793,30.493C46.73,30.54 46.652,30.564 46.558,30.564C46.441,30.564 46.326,30.528 46.213,30.458C46.099,30.388 46.031,30.247 46.008,30.036C46.195,30.169 46.324,30.235 46.394,30.235C46.433,30.235 46.472,30.224 46.512,30.2L46.156,29.837L46.087,29.837C45.987,29.837 45.937,29.79 45.937,29.696L45.972,29.626L45.867,29.556L45.797,29.556C45.703,29.556 45.656,29.489 45.656,29.357C45.64,29.325 45.617,29.294 45.586,29.263L45.492,29.286C45.39,29.286 45.34,29.224 45.34,29.099C44.806,28.614 44.238,28.372 43.634,28.372C43.179,28.372 42.821,28.472 42.558,28.671C42.295,28.87 42.164,29.044 42.164,29.193C42.164,29.239 42.242,29.263 42.398,29.263C42.562,29.263 42.644,29.343 42.644,29.503C42.644,29.655 42.548,29.732 42.357,29.732C42.127,29.732 42.012,29.603 42.012,29.345C42.012,29.079 42.161,28.833 42.461,28.607C42.761,28.38 43.184,28.267 43.729,28.267C44.274,28.267 44.831,28.517 45.399,29.017L45.504,28.993C45.598,28.993 45.644,29.04 45.644,29.134L45.644,29.204L45.715,29.275L45.808,29.251C45.91,29.251 45.961,29.298 45.961,29.392C45.961,29.446 45.941,29.482 45.902,29.497C45.941,29.513 45.976,29.536 46.008,29.568L46.101,29.544C46.195,29.544 46.242,29.591 46.242,29.685L46.219,29.755L46.582,30.118C46.605,30.087 46.617,30.052 46.617,30.013C46.617,29.958 46.566,29.833 46.465,29.638C46.512,29.607 46.599,29.648 46.728,29.761C46.857,29.874 46.922,30.021 46.922,30.2C46.922,30.278 46.902,30.345 46.863,30.4L46.91,30.482C46.942,30.45 46.979,30.435 47.019,30.435C47.15,30.435 47.215,30.497 47.215,30.622L47.191,30.693L47.237,30.716L47.304,30.716C47.393,30.716 47.437,30.778 47.437,30.903L47.519,30.985L47.637,31.056L47.683,31.032L47.66,30.81C47.621,30.372 47.519,29.939 47.355,29.509C47.191,29.079 46.814,28.546 46.224,27.909C45.635,27.273 45.258,26.732 45.094,26.286C44.867,26.318 44.691,26.349 44.566,26.38L44.566,26.556C44.566,26.931 44.439,27.235 44.185,27.47C43.931,27.704 43.617,27.821 43.242,27.821C42.859,27.821 42.531,27.661 42.258,27.341C41.14,28.113 40.582,28.944 40.582,29.832C40.582,30.354 40.719,30.818 40.992,31.223L41.109,31.386C41.398,31.714 41.767,31.963 42.217,32.135C42.666,32.306 43.09,32.392 43.488,32.392C44.199,32.392 44.797,32.275 45.281,32.04L45.48,31.982L45.351,32.087C44.773,32.384 44.152,32.532 43.488,32.532C43.09,32.532 42.66,32.441 42.199,32.257C41.738,32.073 41.344,31.821 41.015,31.501L40.887,31.372C40.496,30.896 40.301,30.353 40.301,29.743C40.301,28.767 40.907,27.903 42.121,27.153C41.911,26.825 41.806,26.415 41.806,25.923C41.806,25.454 41.934,25.013 42.191,24.599C42.448,24.185 42.806,23.853 43.265,23.603C43.109,23.29 43.031,23.009 43.031,22.759C43.031,22.501 43.088,22.302 43.201,22.161C43.314,22.021 43.449,21.95 43.605,21.95C43.808,21.95 43.91,22.038 43.91,22.213C43.91,22.343 43.849,22.407 43.727,22.407C43.629,22.407 43.545,22.345 43.476,22.22C43.273,22.22 43.172,22.384 43.172,22.712C43.172,22.948 43.25,23.217 43.406,23.521C43.844,23.302 44.316,23.181 44.824,23.157C44.996,22.199 45.367,21.406 45.937,20.778C46.508,20.151 47.203,19.755 48.023,19.591C48.211,19.132 48.525,18.769 48.967,18.504C49.408,18.239 49.89,18.107 50.414,18.107C51.07,18.107 51.631,18.304 52.096,18.698C52.56,19.093 52.793,19.583 52.793,20.169C52.793,20.716 52.578,21.15 52.148,21.47C52.609,22.196 52.84,22.962 52.84,23.767C52.84,24.626 52.646,25.337 52.26,25.9C51.873,26.462 51.34,26.81 50.66,26.943L50.672,31.29C50.82,31.189 50.957,31.06 51.082,30.903C50.949,30.653 50.883,30.368 50.883,30.048C50.883,29.845 50.924,29.685 51.006,29.568C51.088,29.45 51.176,29.392 51.269,29.392C51.48,29.392 51.586,29.571 51.586,29.931C51.586,30.235 51.472,30.536 51.246,30.833C51.659,31.661 52.542,32.142 53.894,32.275C53.894,31.704 53.777,31.177 53.543,30.693C53.238,30.599 52.91,30.407 52.558,30.118L52.64,30.13C52.875,30.341 53.16,30.497 53.496,30.599C53.129,29.919 52.566,29.321 51.808,28.806L51.738,28.747L51.785,28.7C51.84,28.7 52.082,28.878 52.512,29.234C52.941,29.589 53.308,30.052 53.613,30.622C53.808,30.669 54.04,30.693 54.308,30.693C54.772,30.693 55.162,30.617 55.476,30.465C55.476,30.367 55.531,30.318 55.64,30.318L55.711,30.341L55.828,30.271L55.805,30.177C55.805,30.083 55.86,30.036 55.971,30.036L56.015,30.06L56.086,29.954C56.039,29.909 56.015,29.86 56.015,29.807C56.015,29.686 56.078,29.626 56.203,29.626L56.25,29.462C56.156,29.414 56.109,29.345 56.109,29.257C56.109,29.16 56.148,29.096 56.226,29.064L56.203,28.9C56.094,28.876 56.039,28.821 56.039,28.735C56.039,28.689 56.055,28.65 56.086,28.618L55.995,28.466C55.899,28.466 55.851,28.415 55.851,28.314L55.851,28.243L55.781,28.15L55.687,28.173C55.594,28.173 55.547,28.112 55.547,27.991C55.312,27.831 55.023,27.751 54.68,27.751C54.055,27.751 53.496,27.923 53.004,28.267L52.922,28.302L52.898,28.255C52.898,28.2 53.088,28.085 53.467,27.909C53.846,27.734 54.25,27.646 54.68,27.646C55.023,27.646 55.335,27.735 55.614,27.915L55.705,27.892C55.795,27.892 55.84,27.958 55.84,28.091C55.879,28.107 55.91,28.138 55.933,28.185L56.015,28.185C56.109,28.185 56.156,28.232 56.156,28.325L56.133,28.419L56.23,28.548C56.36,28.548 56.426,28.608 56.426,28.729C56.426,28.789 56.394,28.834 56.332,28.864L56.355,29.04C56.48,29.064 56.543,29.137 56.543,29.257C56.543,29.362 56.48,29.43 56.355,29.462C56.355,29.509 56.34,29.579 56.308,29.673C56.371,29.711 56.402,29.756 56.402,29.808C56.402,29.921 56.329,29.978 56.182,29.978C56.15,29.994 56.118,30.034 56.086,30.099L56.109,30.172C56.109,30.269 56.051,30.318 55.933,30.318L55.863,30.318C55.832,30.348 55.801,30.37 55.769,30.385L55.769,30.464C55.769,30.554 55.715,30.599 55.606,30.599C55.56,30.599 55.521,30.583 55.49,30.552C55.187,30.716 54.803,30.798 54.338,30.798C54.089,30.798 53.867,30.775 53.672,30.728C53.914,31.212 54.035,31.716 54.035,32.239L54.035,32.333L54.584,32.357C55.511,32.357 56.3,32.077 56.95,31.519C57.6,30.96 57.926,30.208 57.926,29.263C57.926,28.341 57.617,27.587 57,27.001C56.383,26.415 55.59,26.122 54.621,26.122C53.238,26.122 52.16,26.575 51.387,27.482L51.281,27.54C51.281,27.493 51.422,27.331 51.703,27.054C51.984,26.777 52.383,26.528 52.898,26.31C53.414,26.091 53.996,25.982 54.644,25.982C55.715,25.982 56.599,26.292 57.299,26.912C57.998,27.532 58.347,28.298 58.347,29.21C58.347,30.201 57.988,30.996 57.269,31.597C56.551,32.197 55.68,32.497 54.656,32.497C54.359,32.497 54.152,32.489 54.035,32.474C53.965,33.444 53.586,34.276 52.898,34.968C52.211,35.661 51.34,36.093 50.285,36.266C50.332,36.414 50.355,36.551 50.355,36.676C50.355,37.459 50.07,38.079 49.498,38.537C48.927,38.995 48.148,39.224 47.162,39.224C46.364,39.224 45.676,39.075 45.097,38.778C44.517,38.482 44.083,38.105 43.794,37.648C43.504,37.191 43.359,36.833 43.359,36.575L43.411,36.47C43.455,36.47 43.476,36.513 43.476,36.599C43.476,36.818 43.607,37.14 43.868,37.566C44.13,37.991 44.533,38.349 45.079,38.638C45.625,38.927 46.288,39.071 47.068,39.071C47.972,39.071 48.725,38.857 49.326,38.427C49.926,37.997 50.226,37.435 50.226,36.739C50.226,36.599 50.203,36.454 50.156,36.306C49.875,36.337 49.66,36.353 49.512,36.353C48.879,36.353 48.316,36.239 47.824,36.011C47.332,35.782 47.086,35.495 47.086,35.149C47.086,34.992 47.178,34.864 47.361,34.766C47.545,34.667 47.789,34.618 48.094,34.618C48.484,34.618 48.881,34.753 49.283,35.023C49.685,35.292 49.984,35.63 50.18,36.036C51.281,35.872 52.164,35.476 52.828,34.847C53.492,34.218 53.847,33.423 53.894,32.462C53.287,32.384 52.738,32.224 52.248,31.982L52.143,31.911ZM52.242,31.982C51.976,32.427 51.539,32.829 50.93,33.189C50.32,33.548 49.672,33.728 48.984,33.728C48.351,33.728 47.773,33.634 47.25,33.446L47.156,33.388C46.734,33.216 46.211,32.853 45.586,32.298L45.351,32.099L45.281,32.052C44.812,31.599 44.375,31.288 43.969,31.12C43.562,30.952 43.113,30.868 42.621,30.868C42.019,30.868 41.515,31.044 41.109,31.396L41.015,31.501C40.664,31.806 40.488,32.189 40.488,32.65C40.488,32.767 40.463,32.825 40.411,32.825C40.369,32.825 40.347,32.759 40.347,32.625C40.347,32.17 40.523,31.75 40.875,31.366L40.981,31.224C41.732,30.518 42.666,30.165 43.785,30.165C44.191,30.165 44.621,30.248 45.075,30.413C45.528,30.579 46.035,30.878 46.594,31.312C47.153,31.745 47.499,32.009 47.632,32.103L47.702,32.174C48.43,32.694 49.141,32.954 49.837,32.954C50.721,32.954 51.484,32.618 52.125,31.946C52.172,31.884 52.211,31.86 52.242,31.876L52.242,31.982ZM50.062,36.036C49.867,35.653 49.588,35.345 49.224,35.11C48.861,34.876 48.484,34.759 48.094,34.759C47.515,34.759 47.226,34.896 47.226,35.169C47.226,35.45 47.431,35.673 47.842,35.837C48.252,36.001 48.742,36.083 49.312,36.083C49.5,36.083 49.75,36.068 50.062,36.036ZM40.488,32.641C40.488,33.03 40.639,33.347 40.939,33.593C41.24,33.839 41.601,33.962 42.023,33.962C42.562,33.962 43.043,33.767 43.465,33.376L43.558,33.306L43.629,33.353C43.629,33.415 43.457,33.558 43.113,33.78C42.769,34.003 42.406,34.114 42.023,34.114C41.531,34.114 41.129,33.977 40.816,33.701C40.504,33.426 40.347,33.064 40.347,32.616C40.347,32.498 40.369,32.439 40.411,32.439C40.463,32.439 40.488,32.506 40.488,32.641ZM52.078,21.364C52.398,21.099 52.558,20.716 52.558,20.216C52.558,19.614 52.359,19.136 51.961,18.78C51.562,18.425 51.047,18.247 50.414,18.247C49.914,18.247 49.457,18.364 49.043,18.599C48.629,18.833 48.328,19.157 48.14,19.571C48.359,19.54 48.543,19.525 48.691,19.525C49.34,19.525 49.963,19.685 50.56,20.005C51.158,20.325 51.664,20.778 52.078,21.364ZM47.421,23.905C47.841,24.18 48.152,24.438 48.355,24.681C48.495,24.485 48.678,24.388 48.903,24.388C49.074,24.388 49.16,24.47 49.16,24.634C49.16,24.759 49.11,24.821 49.011,24.821C48.89,24.821 48.823,24.777 48.811,24.687C48.8,24.597 48.764,24.552 48.703,24.552C48.594,24.552 48.504,24.614 48.433,24.739C49.027,25.357 49.445,26.052 49.687,26.825C49.875,26.857 50.027,26.872 50.144,26.872L50.379,26.872L50.379,26.755C50.379,26.638 50.428,26.579 50.525,26.579C50.615,26.579 50.66,26.638 50.66,26.755L50.66,26.825C51.277,26.677 51.756,26.334 52.096,25.796C52.435,25.259 52.605,24.581 52.605,23.762C52.605,23.006 52.379,22.289 51.926,21.61C51.707,21.72 51.476,21.775 51.234,21.775C50.812,21.775 50.463,21.644 50.185,21.382C49.908,21.12 49.769,20.872 49.769,20.638C49.769,20.552 49.806,20.509 49.88,20.509C49.963,20.509 50.004,20.56 50.004,20.661C50.004,20.864 50.111,21.079 50.326,21.306C50.541,21.532 50.84,21.646 51.222,21.646C51.465,21.646 51.68,21.599 51.867,21.505C51.07,20.411 50,19.864 48.656,19.864C48.492,19.864 48.285,19.88 48.035,19.911C48.004,20.075 47.988,20.212 47.988,20.321C47.988,20.642 48.019,20.876 48.082,21.025C48.308,21.04 48.504,21.097 48.668,21.194C48.832,21.292 48.914,21.396 48.914,21.505C48.914,21.646 48.836,21.716 48.68,21.716C48.383,21.716 48.144,21.521 47.965,21.13C47.742,21.13 47.519,21.214 47.297,21.381C47.297,21.479 47.242,21.528 47.133,21.528L47.062,21.505L46.84,21.728L46.922,21.751C46.969,21.751 47.055,21.712 47.18,21.634C47.226,21.634 47.25,21.653 47.25,21.693C47.109,21.778 47.015,21.87 46.969,21.968C46.922,22.066 46.855,22.114 46.769,22.114C46.722,22.114 46.676,22.099 46.629,22.068C46.66,22.091 46.676,22.129 46.676,22.181C46.676,22.269 46.623,22.314 46.518,22.314C46.42,22.534 46.371,22.769 46.371,23.021C46.371,23.139 46.386,23.264 46.418,23.398C46.651,23.476 46.931,23.606 47.258,23.787L47.421,23.905ZM49.758,22.9C49.758,23.017 49.796,23.13 49.874,23.239C49.952,23.349 50.169,23.507 50.526,23.714C50.882,23.921 51.117,24.122 51.23,24.318C51.342,24.513 51.398,24.724 51.398,24.95C51.398,25.396 51.217,25.741 50.855,25.987C50.493,26.234 50.151,26.357 49.828,26.357L49.781,26.263L49.898,26.216C50.305,26.13 50.508,25.939 50.508,25.642C50.508,25.501 50.465,25.359 50.38,25.214C50.294,25.069 50.077,24.862 49.728,24.593C49.379,24.323 49.154,24.101 49.053,23.925C48.953,23.749 48.902,23.575 48.902,23.403C48.902,22.95 49.097,22.595 49.487,22.337C49.877,22.079 50.182,21.95 50.402,21.95C50.472,21.95 50.508,21.974 50.508,22.021L50.39,22.091C49.969,22.286 49.758,22.556 49.758,22.9ZM47.976,21.025C47.906,20.853 47.871,20.626 47.871,20.345C47.871,20.235 47.887,20.103 47.918,19.946C46.355,20.251 45.39,21.321 45.023,23.157C45.492,23.157 45.93,23.228 46.336,23.368C46.305,23.204 46.289,23.08 46.289,22.995C46.289,22.771 46.332,22.539 46.418,22.299C46.387,22.268 46.371,22.229 46.371,22.183C46.371,22.09 46.437,22.036 46.57,22.021C46.523,21.981 46.5,21.929 46.5,21.866C46.5,21.787 46.533,21.713 46.599,21.646C46.666,21.578 46.726,21.446 46.781,21.247C46.82,21.247 46.84,21.278 46.84,21.341L46.769,21.587L46.781,21.646L47.004,21.441L47.004,21.384C47.004,21.293 47.058,21.247 47.166,21.247L47.258,21.271C47.451,21.131 47.69,21.049 47.976,21.025ZM48.668,21.411C48.668,21.364 48.619,21.312 48.521,21.253C48.424,21.194 48.289,21.153 48.117,21.13C48.226,21.419 48.371,21.564 48.551,21.564C48.629,21.564 48.668,21.513 48.668,21.411Z" style="fill-rule:nonzero;"/>
            <path d="M61.594,32.357C61.36,32.692 60.96,33.062 60.393,33.467C59.934,33.792 59.592,34.129 59.367,34.478L59.308,34.56C59.269,34.56 59.25,34.536 59.25,34.489C59.25,34.428 59.334,34.303 59.502,34.114C59.67,33.926 59.754,33.789 59.754,33.704L59.637,33.528C59.144,33.028 58.898,32.368 58.898,31.548C58.898,30.454 59.514,29.409 60.745,28.412C61.122,28.112 61.494,27.736 61.863,27.282L61.91,27.329C61.91,27.383 61.758,27.598 61.453,27.974C62.203,28.552 62.707,28.845 62.965,28.853C63.058,28.862 63.105,28.889 63.105,28.935C62.683,29.161 62.472,29.348 62.472,29.496L62.472,32.078C62.472,32.382 62.566,32.629 62.754,32.82C62.941,33.011 63.101,33.107 63.234,33.107C63.312,33.107 63.472,33.021 63.715,32.849C63.754,32.849 63.773,32.872 63.773,32.919C63.773,32.966 63.599,33.097 63.252,33.312C62.904,33.527 62.492,33.896 62.015,34.419L61.992,34.372C61.992,34.31 62.121,34.118 62.379,33.798C62.379,33.759 62.319,33.689 62.2,33.587C61.796,33.228 61.594,32.818 61.594,32.357ZM61.582,32.11L61.582,29.392C61.582,29.282 61.46,29.14 61.218,28.964C60.975,28.788 60.811,28.7 60.726,28.7C60.633,28.7 60.471,28.929 60.24,29.386C60.01,29.843 59.894,30.4 59.894,31.056C59.894,31.587 59.987,32.015 60.174,32.339C60.36,32.663 60.577,32.825 60.825,32.825C61.081,32.825 61.334,32.587 61.582,32.11Z" style="fill-rule:nonzero;"/>
            <path d="M65.59,29.403C65.939,29.002 66.275,28.672 66.597,28.413C66.919,28.153 67.165,27.859 67.336,27.528L67.383,27.599L67.207,27.997C67.207,28.044 67.28,28.114 67.426,28.208C67.573,28.302 67.701,28.349 67.812,28.349C67.915,28.349 68.022,28.294 68.133,28.185C68.18,28.185 68.203,28.208 68.203,28.255C68.047,28.476 67.908,28.675 67.787,28.853C67.666,29.031 67.541,29.157 67.412,29.232C67.283,29.307 67.156,29.345 67.031,29.345C66.875,29.345 66.633,29.196 66.305,28.9C66.265,28.9 66.172,28.975 66.023,29.125C65.875,29.275 65.73,29.469 65.59,29.708L65.59,32.275C65.59,32.415 65.683,32.56 65.871,32.708C66.058,32.857 66.195,32.931 66.281,32.931C66.336,32.931 66.496,32.825 66.762,32.614L66.808,32.685C66.808,32.724 66.629,32.873 66.269,33.13C65.91,33.387 65.656,33.587 65.508,33.73C65.359,33.872 65.164,34.106 64.922,34.431L64.875,34.36C64.875,34.321 64.926,34.231 65.027,34.091C65.129,33.952 65.18,33.854 65.18,33.798C65.18,33.743 65.092,33.61 64.916,33.4C64.74,33.189 64.574,33.083 64.418,33.083C64.347,33.083 64.219,33.13 64.031,33.224L63.949,33.177C63.949,33.138 64.074,33.057 64.324,32.936C64.574,32.815 64.699,32.621 64.699,32.354L64.699,29.64C64.699,29.467 64.623,29.303 64.471,29.146C64.318,28.99 64.203,28.911 64.125,28.911C64,28.911 63.793,29.122 63.504,29.544C63.457,29.544 63.433,29.509 63.433,29.439C63.433,29.261 63.752,28.929 64.388,28.443C64.706,28.204 64.958,27.887 65.144,27.493C65.199,27.493 65.226,27.517 65.226,27.564C65.226,27.618 65.125,27.81 64.922,28.138C65.367,28.536 65.59,28.849 65.59,29.075L65.59,29.403Z" style="fill-rule:nonzero;"/>
            <path d="M72.34,29.099C72.56,28.815 72.857,28.536 73.23,28.261C73.604,27.985 73.908,27.725 74.144,27.482L74.203,27.528L73.887,27.915C73.887,27.985 73.991,28.116 74.201,28.308C74.41,28.499 74.655,28.595 74.934,28.595C75.089,28.595 75.318,28.513 75.621,28.349L75.68,28.396C75.312,28.633 75.027,28.847 74.824,29.037C74.621,29.227 74.41,29.321 74.191,29.321C73.918,29.321 73.666,29.204 73.435,28.97C73.205,28.735 73.07,28.618 73.031,28.618C72.984,28.618 72.857,28.727 72.65,28.945C72.443,29.163 72.34,29.339 72.34,29.474L72.34,32.05C72.34,32.338 72.522,32.571 72.888,32.75L73.043,32.855L72.972,32.902C72.499,33.005 72.094,33.354 71.755,33.947C71.669,34.098 71.606,34.173 71.566,34.173L71.519,34.079L71.765,33.657C71.765,33.54 71.656,33.392 71.438,33.212C71.22,33.032 71.06,32.943 70.957,32.943C70.918,32.943 70.832,32.974 70.699,33.036L70.652,32.954L70.819,32.837C71.239,32.635 71.449,32.377 71.449,32.066L71.449,29.554C71.449,29.335 71.369,29.152 71.209,29.004C71.049,28.856 70.922,28.782 70.828,28.782C70.742,28.782 70.586,28.897 70.359,29.126C70.133,29.355 69.961,29.581 69.844,29.802L69.844,31.981C69.844,32.276 70.055,32.575 70.476,32.878L70.394,32.926C70.039,32.997 69.696,33.283 69.365,33.782C69.255,33.949 69.18,34.032 69.14,34.032L69.094,33.927L69.222,33.728C69.222,33.587 69.127,33.425 68.936,33.241C68.745,33.058 68.619,32.966 68.558,32.966C68.504,32.966 68.382,33.021 68.191,33.13C68.129,33.13 68.097,33.103 68.097,33.048L68.225,32.966C68.71,32.709 68.953,32.386 68.953,31.996L68.953,29.624C68.953,29.429 68.883,29.27 68.742,29.145C68.601,29.02 68.48,28.958 68.379,28.958C68.183,28.958 67.976,29.142 67.758,29.509L67.711,29.403C67.711,29.334 67.814,29.18 68.021,28.943C68.228,28.706 68.479,28.481 68.774,28.268C69.069,28.054 69.269,27.796 69.376,27.493L69.422,27.4C69.476,27.4 69.504,27.419 69.504,27.458C69.504,27.535 69.402,27.738 69.199,28.068C69.199,28.107 69.306,28.202 69.521,28.355C69.736,28.507 69.844,28.716 69.844,28.982L69.844,29.532C69.946,29.307 70.258,28.998 70.78,28.606C71.303,28.213 71.609,27.959 71.699,27.842C71.79,27.725 71.901,27.539 72.035,27.282L72.082,27.353C72.082,27.422 71.949,27.66 71.683,28.068L71.833,28.232C72.171,28.505 72.34,28.794 72.34,29.099ZM74.555,34.15C74.523,34.165 74.508,34.15 74.508,34.103C74.508,34.046 74.574,33.952 74.707,33.821L74.578,33.657C74.101,33.235 73.863,32.501 73.863,31.454C73.863,30.696 74.087,30.069 74.536,29.573C74.985,29.077 75.276,28.829 75.41,28.829L75.504,28.881L75.445,28.946C74.961,29.242 74.719,29.831 74.719,30.711C74.719,31.529 74.81,32.091 74.994,32.399C75.178,32.707 75.43,32.86 75.75,32.86C75.82,32.86 75.965,32.775 76.183,32.603L76.23,32.65C76.23,32.689 76.097,32.809 75.829,33.01C75.562,33.211 75.137,33.59 74.555,34.15Z" style="fill-rule:nonzero;"/>
            <path d="M78.762,27.892L78.881,27.974C79.786,28.443 80.238,29.275 80.238,30.47C80.238,30.829 80.132,31.218 79.92,31.636C79.708,32.054 79.336,32.525 78.802,33.048C78.268,33.571 77.857,34.017 77.566,34.384L77.519,34.314C77.699,34.042 77.789,33.877 77.789,33.821L77.649,33.728C76.789,33.212 76.359,32.454 76.359,31.454C76.359,30.946 76.479,30.439 76.719,29.931C76.959,29.423 77.362,28.921 77.928,28.425C78.493,27.929 78.881,27.517 79.09,27.189L79.137,27.259C79.137,27.328 79.012,27.539 78.762,27.892ZM78.597,32.778C78.847,32.786 79.043,32.605 79.183,32.235C79.324,31.865 79.394,31.419 79.394,30.897C79.394,30.329 79.228,29.824 78.896,29.384C78.564,28.944 78.258,28.724 77.976,28.724C77.789,28.716 77.627,28.932 77.49,29.372C77.353,29.812 77.285,30.262 77.285,30.722C77.285,31.329 77.414,31.824 77.672,32.206C77.93,32.588 78.238,32.778 78.597,32.778Z" style="fill-rule:nonzero;"/>
            <path d="M82.629,29.403C82.978,29.002 83.314,28.672 83.636,28.413C83.958,28.153 84.204,27.859 84.375,27.528L84.422,27.599L84.246,27.997C84.246,28.044 84.319,28.114 84.465,28.208C84.612,28.302 84.74,28.349 84.851,28.349C84.954,28.349 85.061,28.294 85.172,28.185C85.219,28.185 85.242,28.208 85.242,28.255C85.086,28.476 84.947,28.675 84.826,28.853C84.705,29.031 84.58,29.157 84.451,29.232C84.322,29.307 84.195,29.345 84.07,29.345C83.914,29.345 83.672,29.196 83.344,28.9C83.305,28.9 83.211,28.975 83.062,29.125C82.914,29.275 82.769,29.469 82.629,29.708L82.629,32.275C82.629,32.415 82.722,32.56 82.91,32.708C83.097,32.857 83.234,32.931 83.32,32.931C83.375,32.931 83.535,32.825 83.801,32.614L83.847,32.685C83.847,32.724 83.668,32.873 83.308,33.13C82.949,33.387 82.695,33.587 82.547,33.73C82.398,33.872 82.203,34.106 81.961,34.431L81.914,34.36C81.914,34.321 81.965,34.231 82.066,34.091C82.168,33.952 82.219,33.854 82.219,33.798C82.219,33.743 82.131,33.61 81.955,33.4C81.779,33.189 81.613,33.083 81.457,33.083C81.387,33.083 81.258,33.13 81.07,33.224L80.988,33.177C80.988,33.138 81.113,33.057 81.363,32.936C81.613,32.815 81.738,32.621 81.738,32.354L81.738,29.64C81.738,29.467 81.662,29.303 81.51,29.146C81.357,28.99 81.242,28.911 81.164,28.911C81.039,28.911 80.832,29.122 80.543,29.544C80.496,29.544 80.472,29.509 80.472,29.439C80.472,29.261 80.791,28.929 81.427,28.443C81.745,28.204 81.997,27.887 82.183,27.493C82.238,27.493 82.265,27.517 82.265,27.564C82.265,27.618 82.164,27.81 81.961,28.138C82.406,28.536 82.629,28.849 82.629,29.075L82.629,29.403Z" style="fill-rule:nonzero;"/>
            <path d="M87.433,27.974L87.621,28.103C88.183,28.423 88.465,28.794 88.465,29.216C88.465,29.443 88.393,29.679 88.249,29.925C88.106,30.171 87.83,30.46 87.422,30.792C87.015,31.124 86.733,31.4 86.578,31.618L86.531,31.571C86.531,31.439 86.664,31.247 86.931,30.994C87.197,30.741 87.371,30.517 87.452,30.323C87.533,30.128 87.574,29.938 87.574,29.751C87.574,29.51 87.485,29.302 87.307,29.127C87.129,28.952 87.005,28.864 86.935,28.864C86.757,28.864 86.588,29.028 86.429,29.355C86.271,29.682 86.191,30.181 86.191,30.851C86.191,31.505 86.363,31.996 86.705,32.323C87.048,32.65 87.424,32.814 87.832,32.814C87.933,32.814 88.101,32.677 88.336,32.403C88.39,32.403 88.418,32.443 88.418,32.521C88.418,32.683 88.014,33.015 87.206,33.517C86.802,33.756 86.549,33.945 86.448,34.084C86.347,34.223 86.289,34.366 86.273,34.513C86.195,34.513 86.156,34.489 86.156,34.443C86.156,34.235 86.308,33.989 86.613,33.704L86.461,33.575C85.703,33.083 85.324,32.333 85.324,31.325C85.324,30.396 85.829,29.431 86.839,28.431C87.15,28.134 87.384,27.825 87.539,27.505C87.594,27.505 87.621,27.536 87.621,27.599C87.496,27.808 87.433,27.933 87.433,27.974Z" style="fill-rule:nonzero;"/>
        </g>
    </g>
</svg>
