<?xml version="1.0" encoding="UTF-8" standalone="no"?>
<!DOCTYPE svg PUBLIC "-//W3C//DTD SVG 1.1//EN" "http://www.w3.org/Graphics/SVG/1.1/DTD/svg11.dtd">
<svg width="100%" height="100%" viewBox="0 0 900 100" version="1.1" xmlns="http://www.w3.org/2000/svg" xmlns:xlink="http://www.w3.org/1999/xlink" xml:space="preserve" xmlns:serif="http://www.serif.com/" style="fill-rule:evenodd;clip-rule:evenodd;stroke-linejoin:round;stroke-miterlimit:2;">
    <g transform="matrix(0.901848,0,0,0.901848,-6.82717,12.2456)">
        <path d="M78.328,11.642C77.674,10.807 76.726,9.905 75.485,8.935C74.245,7.965 73.117,7.48 72.102,7.48C71.267,7.48 70.658,7.807 70.274,8.461C69.71,9.025 69.203,9.307 68.752,9.307C68.391,9.307 67.375,10.04 65.706,11.507C64.42,12.792 62.762,14.36 60.732,16.21C59.243,17.496 58.267,18.675 57.805,19.746C57.342,20.818 56.739,23.339 55.994,27.309C55.43,30.919 55.16,34.427 55.182,37.833L55.047,45.21L56.705,45.041C57.991,44.86 59.649,44.218 61.679,43.112C64.634,41.533 68.47,39.92 73.184,38.273C77.245,36.784 79.811,35.718 80.883,35.075C81.954,34.432 82.716,33.321 83.167,31.742C83.731,29.892 84.013,27.952 84.013,25.922C84.013,23.621 83.641,21.591 82.896,19.831C82.625,18.996 82.394,18.37 82.202,17.953C82.011,17.536 81.971,17.327 82.084,17.327C82.625,17.327 81.373,15.432 78.328,11.642ZM45.064,8.19C44.613,7.829 43.97,7.621 43.135,7.564C42.301,7.508 41.692,7.671 41.308,8.055C41.037,8.326 40.067,8.743 38.398,9.307C37.293,9.668 36.323,10.13 35.488,10.694C33.458,12.454 32.442,16.379 32.442,22.47C32.442,25.245 32.769,27.321 33.424,28.697C34.078,30.366 34.303,31.753 34.1,32.859C34.01,33.874 34.038,34.449 34.185,34.585C34.332,34.72 34.856,34.743 35.759,34.652C36.954,34.652 38.296,34.009 39.785,32.724C43.666,29.204 45.978,26.475 46.722,24.535C46.903,23.971 46.993,23.237 46.993,22.335C46.993,20.846 46.835,18.483 46.519,15.246C46.204,12.008 46.046,10.345 46.046,10.254C46.046,9.33 45.718,8.642 45.064,8.19ZM39.921,-8.594C40.665,-8.865 41.5,-8.977 42.425,-8.932C43.35,-8.887 43.902,-8.729 44.083,-8.458C44.083,-8.368 44.681,-8.086 45.876,-7.612C46.621,-7.432 47.783,-6.642 49.362,-5.244C53.422,-1.364 55.825,1.107 56.569,2.167C57.314,3.227 57.686,4.773 57.686,6.803C57.686,8.472 57.867,9.397 58.228,9.578L58.363,9.578C59.559,9.578 63.901,6.115 71.391,-0.811C73.985,-3.202 76.117,-4.499 77.787,-4.702C77.877,-4.702 78.057,-4.725 78.328,-4.77C78.599,-4.815 78.824,-4.838 79.005,-4.838C80.02,-4.838 81.78,-4.059 84.284,-2.503C87.149,-0.653 89.044,0.926 89.969,2.235C90.893,3.611 91.909,5.043 93.014,6.532C93.939,7.908 94.796,9.984 95.586,12.759C96.375,15.533 96.77,17.981 96.77,20.102C96.77,22.222 96.071,26.757 94.672,33.705C94.492,34.63 93.454,36.062 91.559,38.002C89.664,39.943 88.209,41.093 87.194,41.454C85.344,42.018 84.419,42.661 84.419,43.383C84.419,43.947 84.836,44.691 85.671,45.616C86.957,47.105 88.412,49.649 90.036,53.247C91.66,56.845 92.845,60.077 93.589,62.942C93.77,63.867 94.136,64.814 94.689,65.784C95.242,66.754 95.699,67.239 96.06,67.239C96.511,67.239 98.406,65.48 101.744,61.96C104.79,58.825 106.775,57.257 107.7,57.257L108.14,57.257C109.426,57.708 110.069,58.633 110.069,60.032C110.069,60.776 109.934,61.464 109.663,62.096C108.377,65.051 105.512,68.864 101.068,73.533C96.624,78.203 93.251,80.91 90.95,81.655C90.115,81.925 89.371,82.061 88.716,82.061C87.701,82.061 86.827,81.643 86.094,80.809C85.361,79.974 84.43,78.451 83.302,76.24C81.723,73.105 80.945,71.119 80.967,70.285C80.967,69.721 80.731,69.078 80.257,68.356C79.693,67.521 79.05,66.089 78.328,64.058C77.403,61.554 76.151,59.422 74.572,57.663C73.286,56.084 72.389,55.181 71.882,54.956C71.374,54.73 70.286,54.617 68.616,54.617C67.33,54.617 66.061,54.454 64.809,54.127C63.557,53.8 62.615,53.636 61.984,53.636C61.239,53.636 60.314,53.783 59.209,54.076C56.615,54.64 55.131,55.334 54.759,56.157C54.387,56.98 54.111,59.795 53.93,64.6C53.84,68.39 53.541,71.277 53.033,73.263C52.526,75.248 52.063,76.562 51.646,77.205C51.229,77.848 50.095,79.241 48.245,81.384C46.959,82.873 45.944,83.787 45.2,84.125C42.154,85.704 40.349,86.494 39.785,86.494C39.334,86.494 37.992,86.121 35.759,85.377C32.059,84.001 29.543,82.918 28.212,82.128C26.881,81.339 26.216,80.527 26.216,79.692C26.216,79.038 26.678,77.244 27.603,74.312C28.709,71.356 29.679,69.777 30.514,69.574C31.258,69.394 31.72,69.303 31.901,69.303C32.736,69.303 34.585,69.901 37.45,71.097C39.391,71.841 40.631,72.214 41.173,72.214C42.459,72.214 43.158,70.646 43.271,67.51C43.361,65.006 43.406,61.216 43.406,56.14C43.406,44.026 43.124,37.98 42.56,38.002C42.38,38.002 40.214,40.078 36.063,44.229C28.754,51.538 23.847,55.644 21.343,56.546C20.892,56.727 20.159,56.636 19.144,56.275C18.58,56.005 18.298,55.497 18.298,54.753C18.298,53.828 18.805,52.632 19.82,51.166C20.565,50.06 20.937,49.226 20.937,48.662C20.937,48.007 21.591,47.037 22.9,45.752C24.93,43.721 26.081,42.289 26.351,41.454C26.442,40.89 26.487,40.191 26.487,39.356C26.487,39.085 26.396,37.292 26.216,33.976C25.855,28.81 25.528,25.662 25.235,24.535C25.054,23.88 24.964,22.82 24.964,21.354C24.964,21.263 24.986,20.316 25.032,18.511C25.077,16.706 25.099,15.161 25.099,13.875C25.19,9.905 25.697,7.457 26.622,6.532C27.457,5.698 27.874,4.773 27.874,3.757C27.874,2.923 28.619,1.817 30.107,0.441C31.687,-0.845 32.657,-2.052 33.018,-3.18C33.379,-3.924 34.32,-4.9 35.843,-6.107C37.366,-7.314 38.725,-8.143 39.921,-8.594Z" style="fill:#ccc5be;fill-rule:nonzero;"/>
        <path d="M125.432,33.536C125.432,33.265 125.827,31.883 126.616,29.39C127.406,26.898 127.8,25.471 127.8,25.11C127.8,24.456 128.517,23.576 129.949,22.47C131.382,21.365 132.56,20.812 133.485,20.812C134.23,20.812 135.155,21.173 136.26,21.895C136.914,22.459 138.392,23.158 140.693,23.993C142.272,24.557 143.936,25.459 145.684,26.7C147.433,27.941 148.307,28.888 148.307,29.543C148.307,30.107 148.724,30.885 149.559,31.878C150.123,32.622 150.473,33.434 150.608,34.314C150.743,35.194 150.811,37.484 150.811,41.183L150.811,46.564C150.811,56.354 150.901,61.994 151.082,63.483L151.488,67.375L155.515,70.014C158.38,71.954 160.049,73.342 160.523,74.176C161.087,75.011 161.78,75.423 162.604,75.411C163.427,75.4 164.786,74.729 166.681,73.398C168.576,72.067 169.851,70.849 170.505,69.743C171.43,68.367 172.299,67.442 173.111,66.969C173.765,66.608 174.182,65.846 174.363,64.684C174.543,63.523 174.735,60.077 174.938,54.347C175.028,52.497 175.073,50.094 175.073,47.139C175.073,43.078 174.797,40.309 174.244,38.831C173.692,37.354 172.581,36.198 170.911,35.363C168.407,34.077 167.155,32.735 167.155,31.336C167.155,30.682 167.347,30.039 167.73,29.407C168.385,28.121 168.802,26.869 168.982,25.651C169.163,23.892 170.404,21.624 172.705,18.85C173.359,18.195 174.329,17.88 175.615,17.902C177.284,17.902 178.672,18.962 179.777,21.083C180.138,22.008 181.243,22.888 183.093,23.722C186.703,25.572 188.508,27.467 188.508,29.407C188.508,30.783 188.744,31.697 189.218,32.148C189.963,32.893 190.324,37.754 190.301,46.733L190.301,48.797C190.301,51.572 190.233,54.414 190.098,57.324C189.963,60.235 189.827,62.637 189.692,64.532C189.557,66.427 189.489,67.51 189.489,67.781C189.489,68.796 190.177,70.228 191.553,72.078C193.222,74.289 194.243,75.394 194.615,75.394C194.988,75.394 196.234,74.334 198.355,72.214C200.385,70.003 201.863,68.897 202.788,68.897C204.908,68.897 205.968,69.687 205.968,71.266C205.968,72.755 205.089,74.503 203.329,76.511C199.72,80.752 196.787,83.73 194.531,85.445C192.275,87.159 190.177,88.016 188.237,88.016C187.131,88.016 186.229,87.785 185.53,87.323C184.83,86.86 183.511,85.659 181.571,83.719C179.27,81.328 177.194,79.297 175.344,77.628L173.551,75.97L171.723,77.628C170.438,79.004 168.548,80.78 166.055,82.957C163.563,85.134 161.809,86.55 160.793,87.204C159.508,87.949 157.985,88.31 156.225,88.287C152.616,88.287 149.976,87.317 148.307,85.377C147.856,84.723 147.348,84.407 146.784,84.429C146.333,84.429 145.019,83.386 142.842,81.299C140.665,79.213 139.204,77.617 138.46,76.511C137.535,75.022 136.802,69.71 136.26,60.573C136.08,58.633 135.989,56.275 135.989,53.501C135.989,51.47 136.08,50.365 136.26,50.184C136.621,49.53 136.802,48.605 136.802,47.41C136.802,45.831 136.531,44.578 135.989,43.654C135.335,42.368 135.008,41.352 135.008,40.608C135.008,38.848 133.44,37.743 130.305,37.292C129.109,37.111 127.998,36.626 126.971,35.837C125.945,35.047 125.432,34.28 125.432,33.536Z" style="fill:#ccc5be;fill-rule:nonzero;"/>
        <path d="M239.097,33.976C240.022,33.976 242.007,33.812 245.052,33.485C248.098,33.158 250.309,32.994 251.685,32.994C254.911,32.994 256.535,33.694 256.558,35.092C256.558,38.318 255.497,41.082 253.377,43.383C252.181,44.759 251.442,45.729 251.16,46.293C250.878,46.857 249.35,47.438 246.575,48.036C243.8,48.633 241.488,48.932 239.638,48.932L238.521,48.932C237.033,48.662 235.972,48.842 235.341,49.474C234.777,50.038 234.495,51.019 234.495,52.418C234.495,53.162 234.641,53.67 234.935,53.941C235.386,54.685 235.611,59.298 235.611,67.781C235.611,69.157 235.702,70.217 235.882,70.962C235.972,71.616 237.269,72.935 239.774,74.921C242.278,76.906 243.851,77.899 244.494,77.899C245.137,77.899 246.011,77.019 247.117,75.259C248.312,73.409 249.767,71.655 251.482,69.997C253.196,68.339 254.426,67.51 255.17,67.51C256.095,67.51 256.828,67.792 257.37,68.356C257.731,68.717 257.922,69.224 257.945,69.879C257.945,70.623 257.691,71.616 257.184,72.857C256.676,74.097 256.169,75.158 255.661,76.037C255.153,76.917 254.46,78.028 253.58,79.371C252.7,80.713 252.26,81.429 252.26,81.519C251.245,83.369 248.188,85.535 243.09,88.016C241.059,89.032 239.633,89.539 238.809,89.539C237.986,89.539 236.367,88.896 233.953,87.61C231.833,86.415 229.712,85.309 227.592,84.294L224.241,82.602L223.835,79.557C223.565,77.887 223.08,73.477 222.38,66.326C221.681,59.174 221.286,55.091 221.196,54.076C221.015,52.226 220.925,51.019 220.925,50.455C220.925,48.786 221.162,47.083 221.636,45.345C222.087,43.044 222.313,41.285 222.313,40.067C222.313,38.961 222.177,37.202 221.907,34.788C221.636,32.487 221.495,30.829 221.484,29.813C221.472,28.798 221.704,27.964 222.177,27.309C224.298,24.444 227.028,21.715 230.366,19.12C231.472,18.286 232.397,17.88 233.141,17.902C233.502,17.902 234.145,18.083 235.07,18.444C235.724,18.804 236.051,19.594 236.051,20.812C236.051,22.098 235.724,23.666 235.07,25.516C234.506,27.185 234.224,28.381 234.224,29.103C234.224,29.937 234.314,30.682 234.495,31.336L235.341,34.111L239.097,33.976Z" style="fill:#ccc5be;fill-rule:nonzero;"/>
        <path d="M281.362,-6.766C282.287,-7.691 283.166,-8.154 284.001,-8.154C285.67,-8.154 288.118,-6.27 291.344,-2.503C292.72,-0.924 294.243,0.61 295.912,2.099C298.033,3.859 299.093,6.352 299.093,9.578C299.093,9.758 299.071,10.102 299.026,10.61C298.98,11.117 298.958,11.507 298.958,11.777C298.687,15.657 298.552,19.775 298.552,24.128C298.552,26.903 298.642,28.753 298.822,29.678C299.093,30.874 299.556,31.472 300.21,31.472C301.225,31.472 303.346,29.712 306.572,26.193C309.798,22.583 312.572,20.226 314.896,19.12C316.565,18.376 317.727,18.015 318.381,18.037C319.577,18.037 321.788,19.425 325.014,22.2C325.758,22.854 326.802,23.683 328.144,24.687C329.486,25.691 330.202,26.238 330.293,26.328C331.398,27.072 332.182,28.093 332.645,29.39C333.107,30.688 333.62,31.517 334.184,31.878C334.455,31.968 334.59,32.893 334.59,34.652C334.59,36.773 334.545,38.623 334.455,40.202C334.365,41.037 334.32,42.379 334.32,44.229C334.32,46.349 334.455,48.932 334.726,51.978C334.816,52.339 335.137,54.623 335.69,58.83C336.243,63.038 336.891,66.23 337.636,68.407C338.38,70.584 339.395,71.672 340.681,71.672C341.335,71.672 342.351,71.074 343.727,69.879C345.306,68.39 346.738,67.645 348.024,67.645C348.476,67.645 348.938,67.781 349.412,68.051C350.066,68.706 350.393,69.45 350.393,70.285C350.393,71.571 349.694,73.003 348.295,74.582C346.806,76.071 345.565,77.921 344.573,80.132C342.723,83.922 340.591,86.042 338.177,86.494C336.508,87.058 335.357,87.475 334.726,87.746C333.801,88.107 333.248,88.287 333.068,88.287C332.616,88.287 331.184,87.689 328.77,86.494C325.634,85.005 324.01,84.272 323.897,84.294C323.333,84.294 322.363,83.832 320.987,82.907C319.137,81.892 318.212,80.504 318.212,78.745C318.212,77.459 318.584,76.071 319.329,74.582C320.164,72.642 320.581,71.165 320.581,70.149C320.581,69.788 320.491,68.773 320.31,67.104C319.949,64.149 319.769,59.704 319.769,53.771C319.769,46.191 319.464,41.364 318.855,39.288C318.246,37.213 316.701,35.622 314.219,34.517C312.189,33.592 311.072,32.949 310.869,32.588C310.779,32.317 310.553,32.171 310.192,32.148C309.448,32.148 308.314,32.752 306.792,33.959C305.269,35.166 304.045,36.457 303.12,37.833C302.466,38.848 301.913,39.356 301.462,39.356C300.808,39.356 300.21,39.728 299.668,40.473C298.924,41.398 298.484,45.188 298.349,51.843C298.213,58.498 297.909,62.062 297.435,62.536C296.984,63.19 296.758,64.713 296.758,67.104C296.758,68.773 296.894,70.014 297.164,70.826C297.345,71.277 297.644,71.554 298.061,71.655C298.478,71.757 299.42,71.717 300.887,71.537C303.278,71.266 304.857,70.759 305.624,70.014C306.459,69.179 307.429,68.762 308.534,68.762C309.459,68.762 310.057,69.089 310.328,69.743C310.508,70.104 310.598,70.747 310.598,71.672C310.598,73.251 310.136,74.774 309.211,76.24C308.196,77.729 307.688,78.519 307.688,78.609C307.688,78.97 306.955,80.211 305.489,82.331C304.474,83.708 303.402,85.422 302.274,87.475C301.259,89.415 299.973,90.385 298.416,90.385C297.401,90.385 296.431,89.923 295.506,88.998C294.401,87.892 290.611,85.715 284.136,82.467C280.166,80.346 278.09,79.015 277.91,78.474C277.82,78.384 277.763,78.102 277.741,77.628C277.741,76.974 277.933,75.451 278.316,73.06C278.97,68.706 280.538,66.021 283.02,65.006C283.854,64.645 284.272,63.771 284.272,62.383C284.272,60.996 284.452,60.302 284.813,60.302C284.903,60.302 284.949,58.78 284.949,55.734L284.949,46.564C285.039,45.909 285.095,44.849 285.118,43.383C285.118,40.067 284.836,35.916 284.272,30.93C283.821,26.486 283.584,23.339 283.561,21.489C283.561,20.835 283.618,20.463 283.73,20.372C283.911,20.192 284.001,19.639 284.001,18.714C284.001,15.398 283.629,13.277 282.884,12.353C282.433,11.901 281.926,11.664 281.362,11.642C280.166,11.642 279.151,12.195 278.316,13.3C277.481,14.225 276.647,14.687 275.812,14.687C274.526,14.687 273.737,13.954 273.443,12.488C273.443,12.398 273.421,12.189 273.376,11.862C273.33,11.535 273.308,11.281 273.308,11.1C273.308,9.724 273.494,8.224 273.866,6.6C274.238,4.976 274.661,4.028 275.135,3.757C275.699,3.396 275.97,2.979 275.947,2.505C275.947,1.851 276.641,0.509 278.028,-1.521C279.416,-3.552 280.11,-4.702 280.11,-4.973C280.11,-5.154 280.527,-5.751 281.362,-6.766Z" style="fill:#ccc5be;fill-rule:nonzero;"/>
        <path d="M459.456,18.714C459.456,18.804 458.508,20.863 456.613,24.89C454.719,28.917 453.771,31.02 453.771,31.201C453.771,31.291 453.263,32.024 452.248,33.4C450.308,35.701 448.182,37.709 445.87,39.424C443.557,41.138 441.803,41.995 440.608,41.995C440.427,41.995 440.156,41.905 439.796,41.725C439.051,41.161 438.679,40.473 438.679,39.661C438.679,39.006 439.006,37.89 439.66,36.31C441.691,31.957 442.841,28.313 443.112,25.38C443.112,24.929 443.179,24.168 443.315,23.096C443.45,22.025 443.518,21.354 443.518,21.083L443.518,20.237C443.518,18.748 442.322,17.361 439.931,16.075C438.081,15.06 436.603,14.552 435.498,14.552C433.919,14.552 432.802,15.567 432.148,17.598C431.877,18.252 431.189,19.132 430.084,20.237C429.159,20.981 428.324,22.042 427.58,23.418L426.192,25.516C425.831,25.696 425.324,26.711 424.67,28.561L423.722,31.336L424.94,33.4C425.865,34.889 426.328,36.051 426.328,36.886C426.328,37.63 426.7,38.736 427.444,40.202C428.73,42.593 429.537,44.483 429.864,45.87C430.191,47.257 430.445,50.083 430.625,54.347C430.806,57.663 430.896,59.829 430.896,60.844C430.896,62.603 430.806,63.759 430.625,64.312C430.445,64.865 430.354,65.186 430.354,65.277C430.354,65.931 431.279,66.495 433.129,66.969C441.07,69.179 446.518,70.285 449.473,70.285C451.414,70.195 452.733,70.031 453.433,69.794C454.132,69.557 455.316,68.886 456.986,67.781C459.377,66.021 460.663,65.006 460.843,64.735C461.114,64.081 461.898,63.201 463.195,62.096C464.492,60.99 465.378,60.438 465.852,60.438C466.686,60.438 467.239,60.9 467.51,61.825C467.6,62.006 467.645,62.288 467.645,62.671C467.645,64.611 466.393,66.969 463.889,69.743C462.783,71.029 461.915,72.225 461.283,73.33C460.629,74.526 459.354,76.139 457.459,78.169C455.564,80.2 454.109,81.497 453.094,82.061C450.049,83.64 447.736,84.429 446.157,84.429C445.977,84.429 444.499,84.328 441.724,84.125C436.829,83.674 431.979,82.568 427.174,80.809C425.053,79.974 422.921,79.557 420.778,79.557C418.838,79.557 416.582,80.301 414.01,81.79C413.085,82.354 411.145,83.369 408.19,84.836C406.904,85.49 406.069,85.997 405.686,86.358C405.325,87.193 404.4,87.61 402.911,87.61C401.332,87.61 400.542,87.148 400.542,86.223C400.542,85.478 401.377,83.629 403.046,80.673C404.716,77.718 406.013,75.868 406.938,75.124C408.224,74.018 410.807,72.168 414.687,69.574C415.251,69.213 415.697,68.869 416.024,68.542C416.351,68.215 416.605,67.871 416.785,67.51C416.966,67.149 417.123,66.828 417.259,66.546C417.394,66.264 417.558,65.824 417.749,65.226C417.941,64.628 418.082,64.137 418.172,63.754C418.624,62.378 418.849,60.167 418.849,57.121C418.849,53.602 418.432,51.29 417.597,50.184C416.853,49.169 416.486,48.43 416.497,47.968C416.509,47.506 415.866,46.445 414.569,44.787C413.271,43.129 412.251,41.51 411.506,39.931C410.581,38.081 410.119,35.442 410.119,32.013C410.119,30.908 410.26,30.355 410.542,30.355C410.824,30.355 410.965,29.712 410.965,28.426C410.965,27.14 411.145,26.401 411.506,26.21C411.867,26.018 412.048,25.505 412.048,24.67C412.048,23.655 412.51,22.781 413.435,22.047C414.36,21.314 414.822,20.575 414.822,19.831C414.822,19.267 415.792,17.834 417.733,15.533C423.643,8.608 428.493,2.968 432.283,-1.386C437.179,-6.936 439.773,-9.699 440.066,-9.677C440.247,-9.677 440.613,-9.541 441.166,-9.271C441.719,-9 442.204,-8.819 442.621,-8.729C443.038,-8.639 443.484,-8.729 443.958,-9C444.409,-9.451 444.916,-9.677 445.48,-9.677C445.932,-9.677 446.62,-9.378 447.545,-8.78C448.47,-8.182 449.113,-7.838 449.473,-7.748C450.398,-7.477 452.338,-5.954 455.294,-3.18C458.159,-0.405 459.738,1.626 460.031,2.911C460.482,6.137 460.708,8.36 460.708,9.578C460.708,10.593 460.528,12.206 460.167,14.417C459.693,16.267 459.456,17.699 459.456,18.714Z" style="fill:#ccc5be;fill-rule:nonzero;"/>
        <path d="M509.639,38.544C504.654,36.04 501.924,34.652 501.45,34.382C500.615,33.637 500.063,33.547 499.792,34.111C499.138,34.946 498.63,39.886 498.269,48.932C498.089,50.512 497.762,51.527 497.288,51.978C496.837,52.632 496.792,53.647 497.153,55.023C497.513,56.309 497.513,57.426 497.153,58.373C496.972,58.937 496.882,59.445 496.882,59.896C496.882,60.731 497.045,61.955 497.372,63.568C497.7,65.181 497.863,66.213 497.863,66.664C497.863,67.769 498.732,68.976 500.469,70.285L503.108,71.943L506.154,71.097C510.034,69.992 512.583,68.198 513.801,65.717C514.252,64.521 514.478,62.806 514.478,60.573C514.478,57.888 514.67,56.366 515.053,56.005C515.324,55.734 515.459,54.764 515.459,53.095C515.459,50.139 515.177,47.139 514.613,44.093C514.433,42.605 514.021,41.516 513.378,40.828C512.735,40.14 511.489,39.379 509.639,38.544ZM498.946,18.308C499.69,17.947 500.345,17.767 500.909,17.767C502.398,17.767 504.428,18.68 507,20.508C507.744,21.072 509.43,21.839 512.059,22.809C514.687,23.779 517.089,24.704 519.266,25.584C521.443,26.463 522.532,27.174 522.532,27.715C522.532,28.167 522.994,28.308 523.919,28.138C524.844,27.969 525.622,28.11 526.254,28.561C526.615,28.832 527.01,29.78 527.438,31.404C527.867,33.028 528.081,34.438 528.081,35.634C528.081,36.198 528.025,36.57 527.912,36.75C527.732,37.405 527.551,41.138 527.371,47.951C527.28,50.342 527.145,52.954 526.965,55.785C526.784,58.616 526.694,60.167 526.694,60.438C526.694,62.378 527.799,64.961 530.01,68.187C531.206,69.856 532.311,70.691 533.326,70.691C534.522,70.691 535.221,70.883 535.424,71.266C535.695,71.627 536.112,71.808 536.676,71.808C537.331,71.808 538.244,71.526 539.417,70.962C540.162,70.601 540.861,70.42 541.515,70.42C542.892,70.42 543.58,71.21 543.58,72.789C543.58,73.985 543.117,75.372 542.192,76.951C541.921,77.402 541.51,78.135 540.957,79.151C540.404,80.166 540.038,80.809 539.857,81.079C539.406,82.004 538.436,83.093 536.947,84.345C535.458,85.597 534.161,86.409 533.056,86.781C531.95,87.153 530.608,87.34 529.029,87.34C527.923,87.34 527.139,87.221 526.677,86.984C526.215,86.747 525.656,86.167 525.002,85.242C524.641,84.881 524.207,84.35 523.699,83.651C523.192,82.952 522.893,82.557 522.802,82.467C522.148,81.903 521.359,80.978 520.434,79.692C519.509,78.406 518.449,77.436 517.253,76.782C516.418,76.421 515.911,76.286 515.73,76.376C515.55,76.466 515.087,77.019 514.343,78.034C514.072,78.395 513.728,78.948 513.311,79.692C512.893,80.436 512.594,80.972 512.414,81.299C512.233,81.626 511.957,82.044 511.585,82.551C511.213,83.059 510.863,83.476 510.536,83.803C510.209,84.131 509.791,84.475 509.284,84.836C508.776,85.196 508.224,85.563 507.626,85.935C507.028,86.308 506.357,86.685 505.612,87.069C504.687,87.52 503.999,87.746 503.548,87.746C502.894,87.746 498.867,86.449 491.468,83.854C488.422,82.749 486.302,82.196 485.106,82.196C484.091,82.196 483.391,81.734 483.008,80.809C482.557,79.703 482.331,74.436 482.331,65.006C482.331,57.426 482.512,53.083 482.873,51.978C483.143,51.143 483.233,50.495 483.143,50.032C483.053,49.57 483.154,49.068 483.448,48.526C483.809,47.692 484.17,45.097 484.531,40.743C484.982,34.743 485.816,31.742 487.035,31.742C487.689,31.742 489.262,30.355 491.755,27.58C494.248,24.805 495.776,22.775 496.34,21.489C496.972,19.932 497.841,18.872 498.946,18.308Z" style="fill:#ccc5be;fill-rule:nonzero;"/>
        <path d="M586.69,20.677C589.082,19.752 590.368,19.289 590.548,19.289C591.202,19.289 592.409,20.068 594.169,21.624C596.199,23.384 597.812,24.501 599.008,24.974C600.203,25.538 601.427,26.531 602.679,27.952C603.931,29.373 604.557,30.501 604.557,31.336C604.557,33.006 603.632,35.109 601.783,37.647C599.933,40.185 598.41,41.454 597.214,41.454C596.47,41.454 595.5,40.946 594.304,39.931C590.875,37.247 587.683,35.679 584.728,35.228C584.457,35.137 584.085,35.092 583.611,35.092C582.776,35.092 581.671,36.243 580.295,38.544L577.96,42.131L578.366,49.203C578.456,51.324 578.665,53.726 578.992,56.411C579.319,59.095 579.483,61.131 579.483,62.519C579.483,63.906 579.336,65.57 579.043,67.51C579.043,67.781 579.02,68.102 578.975,68.474C578.93,68.847 578.907,69.123 578.907,69.303C578.907,70.68 579.257,71.582 579.956,72.011C580.656,72.439 581.975,72.654 583.916,72.654C585.292,72.654 586.256,72.558 586.809,72.366C587.362,72.174 587.965,71.616 588.619,70.691C592.048,66.45 594.586,64.329 596.233,64.329C597.068,64.329 597.575,64.419 597.756,64.6C597.936,64.78 598.026,65.333 598.026,66.258C598.026,68.288 596.695,70.736 594.033,73.601C593.018,74.706 591.93,76.207 590.768,78.102C589.606,79.997 588.935,81.452 588.755,82.467C588.574,83.572 588.247,84.125 587.773,84.125C587.503,84.125 586.442,84.734 584.592,85.952C583.216,86.967 582.291,87.475 581.818,87.475C581.457,87.475 581.039,87.283 580.566,86.9C579.55,86.245 577.103,85.924 573.222,85.935C569.342,85.947 566.985,85.535 566.15,84.7C565.406,83.956 565.045,83.121 565.067,82.196C565.067,82.016 565.158,81.091 565.338,79.421C565.609,76.917 565.744,72.484 565.744,66.123C565.744,57.437 565.518,51.335 565.067,47.816C564.616,44.68 564.052,42.605 563.375,41.589C562.811,40.664 562.535,39.971 562.546,39.508C562.558,39.046 561.96,37.935 560.753,36.175C559.546,34.415 558.942,33.073 558.942,32.148C558.942,31.133 559.568,29.475 560.821,27.174C562.073,24.873 563.296,23.068 564.492,21.76C565.597,20.564 566.714,19.966 567.842,19.966C569.692,19.966 571.44,21.951 573.087,25.922C574.193,28.516 574.982,30.039 575.456,30.49C575.546,30.761 575.772,30.908 576.133,30.93C577.058,30.93 578.727,29.17 581.141,25.651C582.156,24.072 583.013,22.989 583.713,22.403C584.412,21.816 585.404,21.241 586.69,20.677Z" style="fill:#ccc5be;fill-rule:nonzero;"/>
        <path d="M645.841,46.158C645.841,48.007 645.982,52.423 646.264,59.406C646.546,66.388 646.687,70.702 646.687,72.349C646.687,73.454 646.8,74.103 647.025,74.295C647.251,74.486 648.108,74.673 649.597,74.853C649.958,74.943 650.42,74.988 650.984,74.988C652,74.988 652.806,74.689 653.404,74.092C654.002,73.494 654.808,72.27 655.823,70.42C657.583,67.375 659.297,65.852 660.967,65.852L661.373,65.852C662.027,66.123 662.354,66.907 662.354,68.204C662.354,69.501 662.072,70.567 661.508,71.401C661.328,71.672 660.544,73.285 659.156,76.24C657.769,79.196 656.703,80.955 655.959,81.519C655.778,81.61 654.447,82.805 651.966,85.106C650.59,86.392 649.202,87.046 647.804,87.069C646.698,87.069 643.923,86.652 639.479,85.817C637.088,85.366 635.475,84.858 634.64,84.294C633.805,83.73 633.388,82.805 633.388,81.519C633.388,81.249 633.478,80.459 633.659,79.151C633.749,78.496 633.794,77.346 633.794,75.699C633.794,73.308 633.704,71.503 633.523,70.285C633.072,65.75 632.835,59.693 632.813,52.113C632.813,47.218 632.768,44.24 632.678,43.18C632.587,42.119 632.215,41.262 631.561,40.608C630.726,39.773 630.038,39.356 629.497,39.356C628.842,39.356 628.154,39.92 627.432,41.048C626.688,42.334 625.718,43.067 624.522,43.247C623.236,43.608 622.402,43.981 622.018,44.364C621.364,45.018 620.851,45.345 620.479,45.345C620.106,45.345 619.92,45.109 619.92,44.635C619.92,43.529 620.992,40.992 623.135,37.021C625.819,31.855 628.312,28.155 630.613,25.922C631.628,24.907 632.689,24.399 633.794,24.399C634.719,24.399 635.599,24.771 636.434,25.516C637.359,26.26 638.092,26.633 638.633,26.633C638.904,26.633 639.366,26.948 640.021,27.58C640.472,28.144 641.487,28.652 643.066,29.103C643.901,29.373 644.51,29.52 644.893,29.543C645.548,29.543 646.653,28.888 648.21,27.58C649.969,26.091 650.849,25.121 650.849,24.67C650.849,24.106 651.543,23.204 652.93,21.963C654.318,20.722 655.282,20.102 655.823,20.102C656.275,20.102 656.827,19.775 657.481,19.12C658.045,18.556 659.015,18.286 660.392,18.308C661.317,18.308 661.988,18.421 662.405,18.647C662.822,18.872 663.268,19.402 663.742,20.237C664.486,21.613 666.28,23.282 669.122,25.245C671.987,27.095 674.164,28.843 675.653,30.49L677.886,32.859L680.796,29.543C681.812,28.347 684.53,25.527 688.952,21.083C692.471,17.564 694.507,15.804 695.06,15.804C695.612,15.804 696.441,16.357 697.547,17.462C701.156,21.252 704.258,23.564 706.852,24.399C708.341,24.963 709.819,25.843 711.285,27.039C711.737,27.4 712.47,28.042 713.485,28.967C714.5,29.892 715.199,30.501 715.583,30.795C717.523,32.374 718.792,33.485 719.39,34.128C719.988,34.771 720.287,35.498 720.287,36.31C720.287,36.874 719.959,38.352 719.305,40.743C718.741,43.338 718.471,52.215 718.493,67.375C718.493,72.27 718.809,75.045 719.441,75.699C719.892,76.15 720.354,76.376 720.828,76.376C721.663,76.376 722.588,75.451 723.603,73.601C724.889,71.097 726.321,69.856 727.9,69.879C729.006,69.879 729.84,70.431 730.404,71.537C730.675,72.101 730.81,72.744 730.81,73.466C730.81,75.315 729.75,77.583 727.63,80.267C726.524,81.553 725.689,82.839 725.125,84.125C724.765,85.23 723.152,86.527 720.287,88.016C717.421,89.505 715.109,90.25 713.35,90.25C712.064,90.25 709.757,89.116 706.429,86.849C703.102,84.582 701.438,82.986 701.438,82.061C701.438,81.316 701.901,79.929 702.826,77.899C703.841,76.049 704.439,73.781 704.619,71.097C705.454,58.802 705.871,51.922 705.871,50.455C705.871,50.094 705.849,49.637 705.803,49.085C705.758,48.532 705.736,48.109 705.736,47.816C705.646,46.056 705.437,44.922 705.11,44.415C704.783,43.907 703.931,43.101 702.555,41.995C701.54,41.251 700.288,40.303 698.799,39.153C697.31,38.002 695.691,36.733 693.943,35.346C692.195,33.959 690.993,32.994 690.339,32.453L688.14,30.795C686.199,32.825 683.188,35.871 679.105,39.931L679.105,45.752C679.105,48.887 679.206,54.617 679.409,62.942C679.499,68.491 679.612,71.819 679.747,72.924C679.883,74.03 680.278,74.853 680.932,75.394C682.037,76.139 682.725,76.511 682.996,76.511C683.357,76.511 684.141,75.637 685.348,73.889C686.555,72.14 687.384,70.759 687.835,69.743C688.106,68.909 689.031,68.491 690.61,68.491C691.264,68.491 691.726,68.582 691.997,68.762C692.651,69.033 692.978,70.093 692.978,71.943C692.978,73.319 692.742,74.154 692.268,74.447C691.997,74.537 691.377,75.552 690.407,77.492C689.437,79.433 688.726,80.448 688.275,80.538C687.35,80.989 685.635,82.467 683.131,84.971C680.357,87.746 678.275,89.133 676.888,89.133C675.501,89.133 672.686,87.464 668.445,84.125C666.054,82.185 664.847,80.662 664.824,79.557C664.824,78.993 665.016,78.395 665.4,77.763C665.67,77.402 665.806,76.387 665.806,74.718C665.806,74.154 665.716,72.033 665.535,68.356C665.355,64.295 665.264,62.163 665.264,61.96C665.264,61.035 665.355,59.58 665.535,57.595C665.716,55.61 665.806,52.959 665.806,49.643L665.941,41.183L663.606,38.815C662.23,37.438 660.516,36.096 658.463,34.788C656.162,33.299 654.91,32.475 654.707,32.317C654.346,32.137 654.12,32.035 654.03,32.013C652.834,32.013 650.984,33.637 648.48,36.886L645.841,40.202L645.841,46.158Z" style="fill:#ccc5be;fill-rule:nonzero;"/>
        <path d="M762.111,37.156C760.442,36.412 759.472,36.04 759.201,36.04C758.547,36.04 758.231,36.638 758.254,37.833C758.254,38.014 758.276,38.341 758.321,38.815C758.367,39.288 758.389,39.661 758.389,39.931L758.389,41.454C758.389,42.83 758.299,44.082 758.118,45.21C758.028,45.571 757.983,46.44 757.983,47.816C757.983,50.591 758.209,54.059 758.66,58.221C759.111,62.383 759.528,64.792 759.912,65.446C761.288,67.205 763.454,68.683 766.409,69.879C767.334,70.24 769.206,70.928 772.026,71.943C774.846,72.958 776.583,73.556 777.237,73.736C778.523,74.188 779.352,74.419 779.725,74.43C780.097,74.441 780.565,74.21 781.129,73.736C781.873,73.082 782.234,71.559 782.212,69.168C782.212,68.153 782.449,64.871 782.922,59.321L783.464,53.095L781.4,48.932C780.294,46.902 779.51,45.633 779.048,45.126C778.585,44.618 777.384,43.992 775.444,43.247C774.158,42.593 771.959,41.578 768.845,40.202C765.732,38.826 763.488,37.811 762.111,37.156ZM754.362,21.218C755.468,19.729 756.393,18.754 757.137,18.291C757.882,17.829 758.344,17.598 758.525,17.598C759.449,18.162 760.42,18.771 761.435,19.425C762.63,20.35 764.661,21.433 767.526,22.673C770.391,23.914 772.331,24.862 773.346,25.516C775.557,26.711 777.034,27.445 777.779,27.715C779.268,28.167 780.384,28.674 781.129,29.238C781.58,29.802 783.148,30.501 785.833,31.336C788.517,32.261 790.683,33.231 792.33,34.246L794.969,35.904L794.834,41.319C794.834,43.913 795.065,46.964 795.527,50.472C795.99,53.98 796.266,56.704 796.356,58.644C796.447,59.659 796.492,60.81 796.492,62.096C796.492,63.585 796.12,65.062 795.375,66.529C794.631,68.288 793.616,69.585 792.33,70.42C791.134,71.074 790.209,72.18 789.555,73.736C789.104,74.752 788.483,75.744 787.694,76.714C786.904,77.684 785.912,78.75 784.716,79.912C783.52,81.074 782.686,81.88 782.212,82.331C779.076,85.851 775.985,87.61 772.94,87.61C771.361,87.61 769.691,87.148 767.932,86.223C766.082,85.298 764.751,84.836 763.939,84.836C763.194,84.836 761.435,84.074 758.66,82.551C755.885,81.029 754.407,80.03 754.227,79.557C754.047,79.286 753.674,79.151 753.11,79.151C752.456,79.151 751.486,78.756 750.2,77.966C748.914,77.177 748.181,76.466 748.001,75.834C746.512,72.608 745.767,66.044 745.767,56.14C745.767,53.839 745.812,52.079 745.903,50.861C745.903,49.575 745.925,48.239 745.97,46.851C746.015,45.464 746.061,44.381 746.106,43.603C746.151,42.824 746.173,42.198 746.173,41.725C746.173,40.529 746.038,39.097 745.767,37.427C745.677,37.156 745.632,36.739 745.632,36.175C745.632,35.34 746.602,33.637 748.542,31.065C750.663,28.11 751.87,26.17 752.163,25.245C752.524,24.05 753.257,22.707 754.362,21.218Z" style="fill:#ccc5be;fill-rule:nonzero;"/>
        <path d="M839.467,20.677C841.859,19.752 843.144,19.289 843.325,19.289C843.979,19.289 845.186,20.068 846.946,21.624C848.976,23.384 850.589,24.501 851.785,24.974C852.98,25.538 854.204,26.531 855.456,27.952C856.708,29.373 857.334,30.501 857.334,31.336C857.334,33.006 856.409,35.109 854.559,37.647C852.71,40.185 851.187,41.454 849.991,41.454C849.247,41.454 848.277,40.946 847.081,39.931C843.652,37.247 840.46,35.679 837.505,35.228C837.234,35.137 836.862,35.092 836.388,35.092C835.553,35.092 834.448,36.243 833.072,38.544L830.737,42.131L831.143,49.203C831.233,51.324 831.442,53.726 831.769,56.411C832.096,59.095 832.26,61.131 832.26,62.519C832.26,63.906 832.113,65.57 831.82,67.51C831.82,67.781 831.797,68.102 831.752,68.474C831.707,68.847 831.684,69.123 831.684,69.303C831.684,70.68 832.034,71.582 832.733,72.011C833.433,72.439 834.752,72.654 836.692,72.654C838.069,72.654 839.033,72.558 839.586,72.366C840.138,72.174 840.742,71.616 841.396,70.691C844.825,66.45 847.363,64.329 849.01,64.329C849.845,64.329 850.352,64.419 850.533,64.6C850.713,64.78 850.803,65.333 850.803,66.258C850.803,68.288 849.472,70.736 846.81,73.601C845.795,74.706 844.707,76.207 843.545,78.102C842.383,79.997 841.712,81.452 841.531,82.467C841.351,83.572 841.024,84.125 840.55,84.125C840.279,84.125 839.219,84.734 837.369,85.952C835.993,86.967 835.068,87.475 834.594,87.475C834.234,87.475 833.816,87.283 833.342,86.9C832.327,86.245 829.88,85.924 825.999,85.935C822.119,85.947 819.762,85.535 818.927,84.7C818.183,83.956 817.822,83.121 817.844,82.196C817.844,82.016 817.934,81.091 818.115,79.421C818.386,76.917 818.521,72.484 818.521,66.123C818.521,57.437 818.295,51.335 817.844,47.816C817.393,44.68 816.829,42.605 816.152,41.589C815.588,40.664 815.312,39.971 815.323,39.508C815.334,39.046 814.737,37.935 813.53,36.175C812.323,34.415 811.719,33.073 811.719,32.148C811.719,31.133 812.345,29.475 813.597,27.174C814.849,24.873 816.073,23.068 817.269,21.76C818.374,20.564 819.491,19.966 820.619,19.966C822.469,19.966 824.217,21.951 825.864,25.922C826.969,28.516 827.759,30.039 828.233,30.49C828.323,30.761 828.549,30.908 828.91,30.93C829.834,30.93 831.504,29.17 833.918,25.651C834.933,24.072 835.79,22.989 836.489,22.403C837.189,21.816 838.181,21.241 839.467,20.677Z" style="fill:#ccc5be;fill-rule:nonzero;"/>
        <path d="M897.366,39.525C896.711,38.871 895.144,38.081 892.662,37.156C890.181,36.232 888.286,35.769 886.977,35.769C886.233,35.769 885.815,35.95 885.725,36.31C885.454,37.145 885.319,38.769 885.319,41.183C885.319,48.38 885.736,52.395 886.571,53.23C886.842,53.501 887.53,53.128 888.635,52.113C889.47,51.279 892.019,49.485 896.283,46.733C900.253,44.139 902.239,42.424 902.239,41.589C902.239,41.138 901.539,40.811 900.141,40.608C898.855,40.45 897.93,40.089 897.366,39.525ZM897.941,70.42C898.212,70.42 899.825,71.136 902.78,72.569C905.735,74.001 907.399,74.718 907.771,74.718C908.143,74.718 909.113,73.703 910.681,71.672C912.249,69.642 913.033,68.395 913.033,67.933C913.033,67.471 913.823,66.568 915.402,65.226C916.981,63.884 918.002,63.212 918.464,63.212C918.927,63.212 919.711,63.765 920.816,64.871L922.339,66.393L920.816,68.897C918.876,72.326 916.287,75.817 913.05,79.371C909.813,82.924 907.45,84.881 905.961,85.242C904.765,85.603 903.75,86.11 902.915,86.764C901.99,87.419 900.603,87.746 898.753,87.746C897.084,87.746 895.843,87.52 895.031,87.069C894.286,86.708 892.256,85.963 888.94,84.836C885.985,83.911 883.48,82.568 881.428,80.809C879.397,79.139 878.156,78.305 877.705,78.305C876.961,78.305 876.171,77.408 875.337,75.614C874.502,73.821 873.994,71.999 873.814,70.149C872.799,58.96 872.291,51.843 872.291,48.797C872.291,46.947 872.472,44.172 872.832,40.473C872.832,39.457 872.697,38.217 872.426,36.75C872.246,35.645 872.156,35.036 872.156,34.923C872.156,34.179 872.528,33.445 873.272,32.724C874.288,31.708 875.438,29.813 876.724,27.039C878.01,24.354 879.048,22.504 879.837,21.489C880.627,20.474 881.856,19.414 883.526,18.308C885.466,17.113 886.988,16.515 888.094,16.515C888.929,16.515 889.808,16.876 890.733,17.598C891.568,18.432 892.121,18.85 892.391,18.85C892.572,18.85 893.17,19.267 894.185,20.102C895.11,20.846 896.272,21.218 897.67,21.218C898.956,21.218 900.107,21.636 901.122,22.47C901.866,23.125 903.113,23.818 904.861,24.551C906.609,25.285 907.901,26.023 908.736,26.768C910.225,27.873 911.24,28.426 911.781,28.426C912.435,28.426 913.27,28.934 914.285,29.949C914.466,30.129 915.182,30.637 916.434,31.472C917.686,32.306 918.588,33.09 919.141,33.823C919.694,34.556 919.97,35.431 919.97,36.446C919.97,37.19 919.835,37.89 919.564,38.544C919,40.123 918.402,41.42 917.771,42.435C916.575,44.195 912.503,47.466 905.555,52.249C904.066,53.354 903.186,54.053 902.915,54.347C902.351,54.708 901.889,54.888 901.528,54.888C900.964,54.888 900.039,55.305 898.753,56.14C897.377,56.975 895.944,57.482 894.456,57.663C890.485,57.934 888.139,58.441 887.417,59.186C887.327,59.366 887.27,59.513 887.248,59.626C887.248,60.37 887.62,61.684 888.365,63.568C889.109,65.451 889.758,66.72 890.31,67.375C890.863,68.029 892.019,68.7 893.779,69.388C895.538,70.076 896.926,70.42 897.941,70.42Z" style="fill:#ccc5be;fill-rule:nonzero;"/>
    </g>
</svg>
