<svg xmlns="http://www.w3.org/2000/svg" xml:space="preserve" style="fill-rule:evenodd;clip-rule:evenodd;stroke-linejoin:round;stroke-miterlimit:2" viewBox="0 0 83 23"><path d="M14.133 29.755a4.84 4.84 0 0 0 1.511.34v-3.336c-.382-.468-.589-.979-.621-1.533v-.14c.008-.273.051-.554.129-.843.078-.288.291-.719.638-1.293.347-.573.553-1.075.616-1.504a4.407 4.407 0 0 0-1.095-.152c-.58 0-1.102.097-1.565.291 0 .372.07.659.21.86.14.201.31.302.51.302.176 0 .272-.039.288-.117l-.094-.117c0-.102.041-.153.122-.153.106 0 .159.059.159.176 0 .063-.047.131-.142.205a.53.53 0 0 1-.342.112c-.268 0-.493-.116-.674-.347a1.302 1.302 0 0 1-.271-.828 3.46 3.46 0 0 0-1.758 1.995 3.337 3.337 0 0 0-.188 1.125v.07c0 .891.332 1.602.996 2.133l.082.082-.047.047c-.101 0-.322-.211-.662-.633-.339-.422-.509-.98-.509-1.676v-.093c0-.422.062-.797.187-1.125.367-.955 1-1.635 1.899-2.042.023-.22.07-.412.14-.576-.445-.11-.734-.423-.867-.94-1.674.705-2.74 1.809-3.2 3.312a3.402 3.402 0 0 0-.116.961c0 1.359.3 2.457.902 3.292l.082.094c.203.25.465.489.785.715l-.023.059c-.368-.235-.649-.469-.844-.703l-.07-.094c-.649-.844-.973-1.957-.973-3.34 0-.305.043-.625.129-.961.406-1.605 1.508-2.814 3.305-3.629.031-.501.203-.898.517-1.192.313-.294.69-.441 1.129-.441.76 0 1.36.414 1.799 1.242 1.707.266 3.081.911 4.122 1.934 1.041 1.024 1.561 2.172 1.561 3.445 0 1.125-.308 2.121-.925 2.989-.618.867-1.489 1.527-2.614 1.98a5.152 5.152 0 0 1 1.043-.094c1.188 0 2.245.431 3.17 1.291.926.861 1.389 1.839 1.389 2.934 0 1.096-.424 1.984-1.272 2.664-.847.681-1.959 1.022-3.334 1.022-.757 0-1.443-.139-2.056-.416-.613-.278-1.082-.592-1.406-.944-.325-.351-.487-.551-.487-.597l.047-.047.059.07c.937 1.195 2.195 1.793 3.773 1.793 1.266 0 2.311-.327 3.135-.98.824-.653 1.236-1.536 1.236-2.647 0-1.04-.426-1.969-1.277-2.787-.852-.818-1.883-1.227-3.094-1.227-.398 0-.844.053-1.336.159-.125.023-.187.015-.187-.023-.008-.037.047-.075.164-.113 1.164-.375 2.07-.982 2.719-1.822.648-.839.972-1.83.972-2.97 0-1.297-.472-2.424-1.418-3.381-.945-.957-2.219-1.568-3.82-1.834.172.453.258.957.258 1.512v.07c.976.281 1.752.76 2.326 1.436.574.675.861 1.455.861 2.337 0 .641-.214 1.209-.642 1.705a2.304 2.304 0 0 1-1.648.815 1.762 1.762 0 0 1-.292 0c-.561-.055-1.048-.297-1.461-.727v3.188c.327 0 .647-.024.958-.07l.199.023-.175.073a5.857 5.857 0 0 1-.982.079v.575a11.3 11.3 0 0 1 1.008-.575c.109-.054.168-.062.176-.023.015.039-.035.086-.152.141-.305.14-.649.339-1.032.597v.891c.196.195.293.316.293.363l-.023.047a6.123 6.123 0 0 0-.27-.293v1.395c0 .125-.021.187-.064.187s-.065-.062-.065-.187v-1.512a5.865 5.865 0 0 0-.457-.457 4.334 4.334 0 0 1-.211.199l-.046-.023c.046-.071.109-.145.187-.223a5.185 5.185 0 0 0-1.242-.891l-.34-.164a5.578 5.578 0 0 0-1.441-.48l-.457-.071a3.89 3.89 0 0 0-.504-.023c-1.36 0-2.471.327-3.334.981-.864.653-1.295 1.552-1.295 2.694 0 1.175.465 2.121 1.396 2.84.931.719 2.066 1.079 3.404 1.079.375 0 .778-.039 1.208-.117.133-.516.368-.942.704-1.278.337-.336.669-.504.998-.504.321 0 .481.145.481.434 0 .305-.172.582-.515.832-.344.25-.821.445-1.43.586-.031.25-.047.441-.047.574 0 .664.183 1.211.549 1.641.366.429.853.644 1.46.644a1.76 1.76 0 0 0 1.297-.527c.351-.352.526-.77.526-1.254 0-.297-.086-.559-.258-.785-.172-.227-.359-.34-.562-.34-.125 0-.203.035-.235.105a.867.867 0 0 0-.047.329c0 .125-.049.187-.147.187-.12 0-.181-.062-.181-.187s.065-.247.194-.364a.62.62 0 0 1 .427-.175c.25 0 .465.126.645.38s.269.541.269.862c0 .515-.193.961-.581 1.336a1.933 1.933 0 0 1-1.393.562c-.658 0-1.195-.23-1.61-.691-.415-.461-.623-1.047-.623-1.758 0-.094.016-.254.047-.481a6.748 6.748 0 0 1-1.35.141c-1.354 0-2.53-.366-3.528-1.097-.998-.732-1.497-1.727-1.497-2.987 0-1.088.481-1.991 1.443-2.711.963-.72 2.116-1.08 3.462-1.08.172 0 .395.016.668.048l.411.071a5.336 5.336 0 0 1 1.467.49l.364.188c.469.273.891.57 1.267.891a5.07 5.07 0 0 1 .457-.364V30.2c-.375-.008-.886-.126-1.535-.351l-.164-.106c.008-.039.07-.035.188.012Zm-.012.105a6.741 6.741 0 0 0-.188.481l-.046.07a5.014 5.014 0 0 1-.434.821c.766.406 1.148.918 1.148 1.535 0 .531-.148.931-.444 1.201-.296.269-.519.404-.669.404l-.07-.023.07-.082c.258-.188.387-.461.387-.821 0-.523-.352-.972-1.055-1.347-.932 1.07-1.875 1.605-2.831 1.605-.611 0-1.108-.144-1.492-.433-.383-.289-.575-.641-.575-1.055 0-.305.1-.561.3-.768.201-.207.454-.31.761-.31.228 0 .424.068.589.205a.635.635 0 0 1 .248.51.756.756 0 0 1-.214.556.692.692 0 0 1-.511.217c-.27 0-.524-.125-.762-.377l-.083-.068-.035.115c0 .415.157.732.471.951.314.219.754.328 1.319.328.409 0 .86-.137 1.355-.413a4.761 4.761 0 0 0 1.343-1.134c-.477-.281-.799-.543-.967-.785a1.423 1.423 0 0 1-.252-.832c0-.226.054-.465.162-.715l.047-.093c.154-.282.33-.508.527-.68.197-.172.315-.258.354-.258l.07.047-.082.082c-.312.227-.468.496-.468.809v.164c.031.492.418.949 1.16 1.371.159-.382.254-.679.284-.889l.023-.094c.045-.265.068-.522.068-.772 0-.897-.182-1.77-.546-2.62-.364-.851-.871-1.502-1.521-1.954l-.14-.07a3.105 3.105 0 0 0-1.574-.433c-.18 0-.313.008-.399.023l-.129.023c-.657.086-1.174.315-1.55.688a1.846 1.846 0 0 0-.563 1.362c0 .497.168.905.506 1.223.337.318.772.478 1.305.478.493 0 .917-.143 1.27-.428l.07-.069c.078-.062.184-.166.318-.312l.046.047c0 .047-.093.168-.281.363l-.082.071c-.383.289-.836.433-1.359.433-.641 0-1.153-.211-1.535-.633a2.186 2.186 0 0 1-.575-1.523c0-.524.241-1.057.722-1.6.481-.543 1.096-.9 1.847-1.072l.117-.023a3.774 3.774 0 0 1 2.041.246l.141.07c1.024.453 1.794 1.238 2.311 2.355.171-.32.491-.632.959-.936l.117-.094c.296-.203.764-.478 1.404-.826.64-.347 1.051-.639 1.235-.875a1.81 1.81 0 0 0 .356-.761c.047 0 .071.024.071.071 0 .27-.104.52-.311.748-.207.228-.31.373-.31.435 0 .149.177.369.533.662.355.293.588.543.697.75.11.207.164.408.164.604 0 .586-.441 1.164-1.324 1.734l-.141.094-.937.527c.617.102 1.058.637 1.324 1.606l.047.176c.055.203.119.517.193.943.075.426.155.752.241.978.085.227.24.413.462.557.223.145.463.217.721.217.258 0 .492-.133.703-.399l.071-.07.035.047c0 .085-.131.262-.393.53a5.266 5.266 0 0 1-1.049.799c-.437.264-.855.552-1.254.862 0-.038.079-.127.235-.265.156-.139.351-.3.586-.485l-.14-.105c-.459-.281-.784-.627-.975-1.037a5.582 5.582 0 0 1-.42-1.342c-.089-.484-.146-.77-.169-.855l-.023-.118-.024-.07-.023-.094c-.179-.703-.498-1.074-.957-1.113h-.117c-.195 0-.387.113-.574.34l-.047-.047c0-.125.207-.34.621-.645l.117-.07c.203-.148.448-.291.733-.428.285-.136.529-.283.732-.439l.094-.094c.336-.312.504-.691.504-1.137 0-.203-.043-.402-.129-.597-.086-.196-.285-.404-.598-.627-.312-.223-.531-.479-.656-.768-.078 0-.305.114-.681.34l-.118.07-.505.317-.117.094c-.36.242-.666.554-.916.937.23.524.345 1.051.345 1.582 0 .641-.106 1.313-.317 2.016l-.023.093Zm3.545-2.32a2.17 2.17 0 0 0 1.443-.814c.378-.465.567-.987.567-1.565 0-.883-.274-1.646-.821-2.291-.547-.644-1.297-1.103-2.25-1.377-.031.383-.285.989-.761 1.817-.477.828-.711 1.39-.704 1.687v.141c.024.555.192 1.043.504 1.465v-1.782c0-.101.022-.152.065-.152.043 0 .064.027.064.082v1.992c.429.477.947.742 1.554.797.133.016.246.016.339 0Zm-2.022 4.149v-.692a2.74 2.74 0 0 0-.386.305l.386.387Zm-2.882 5.379c1.109-.274 1.664-.668 1.664-1.184 0-.219-.153-.328-.457-.328-.211 0-.44.138-.686.416-.246.277-.42.642-.521 1.096Zm9.035-3.223h.105c.078 0 .117.043.117.129 0 .258-.049.386-.147.386-.113 0-.17-.027-.17-.082a.854.854 0 0 1-.093.258c.047.045.071.09.071.135 0 .106-.074.158-.221.158l-.072.094.023.105c0 .094-.074.141-.223.141-.468.469-1.101.703-1.898.703-.945 0-1.664-.23-2.156-.691-.493-.461-.739-.906-.739-1.336l.041-.188.041.211c0 .383.245.791.733 1.225.488.434 1.185.65 2.092.65.804 0 1.414-.215 1.828-.644l-.024-.071c0-.117.067-.175.2-.175l.046-.071a.149.149 0 0 1-.046-.112c0-.12.078-.181.234-.181.031-.062.039-.113.023-.152-.109-.032-.164-.092-.164-.18 0-.247.048-.371.143-.371l.08.012h.07l.024-.105c-.094-.025-.141-.081-.141-.17a.231.231 0 0 1 .152-.205.262.262 0 0 0-.023-.118c-.078 0-.117-.047-.117-.14 0-.071.022-.121.068-.153a2.338 2.338 0 0 0-.783-1.177 1.955 1.955 0 0 0-1.254-.452l-.445-.052.445-.053c.5 0 .945.157 1.336.472.391.315.654.728.791 1.239.098 0 .146.056.146.169 0 .068-.035.113-.105.136l.023.129c.094.032.141.1.141.205 0 .081-.043.137-.129.17l-.023.152ZM10.793 35.31h.199c.57 0 1.082-.133 1.535-.399l.094-.058.047.047c0 .062-.182.164-.545.304a3.16 3.16 0 0 1-1.154.211h-.176c-.015.063-.068.094-.158.094-.068 0-.113-.043-.135-.129h-.094c-.041.156-.094.234-.16.234-.081-.023-.121-.058-.121-.105l.023-.164-.082-.024c-.016.149-.057.223-.123.223-.09 0-.135-.033-.135-.099l.024-.182-.094-.024c-.023.047-.07.071-.141.071-.093 0-.14-.055-.14-.164-.578-.227-1.008-.518-1.289-.873-.281-.356-.422-.592-.422-.709l.052-.071.065.082c.341.719.88 1.219 1.617 1.5l.141-.047c.094 0 .141.047.141.141l.07.024c.041-.133.082-.2.123-.2.105 0 .158.032.158.094l-.023.152.058.024c.033-.133.074-.199.123-.199.106 0 .159.033.159.101l-.024.133h.094a.21.21 0 0 1 .158-.07c.075 0 .12.027.135.082Zm5.285-15.973c-.405-.727-.969-1.09-1.693-1.09a1.36 1.36 0 0 0-.975.4 1.34 1.34 0 0 0-.414 1.006c.685-.257 1.331-.386 1.938-.386.397 0 .778.023 1.144.07Zm.375 1.491c.016-.302-.055-.667-.211-1.093a8.106 8.106 0 0 0-1.289-.093c-.648 0-1.297.111-1.945.334.093.519.324.818.691.896.102-.172.223-.306.363-.404.141-.098.262-.147.364-.147.234 0 .351.067.351.2 0 .117-.1.226-.301.328a1.376 1.376 0 0 1-.626.152 2.351 2.351 0 0 0-.092.457 4.258 4.258 0 0 1 1.605-.293c.305 0 .66.039 1.067.117l.023-.454Zm-2.555.079a.972.972 0 0 0 .528-.134c.14-.09.211-.163.211-.217 0-.063-.079-.094-.235-.094-.047 0-.123.039-.228.117a1.007 1.007 0 0 0-.276.328Z" style="fill:#ccc5be;fill-rule:nonzero" transform="translate(-6.105 -18.107)"/><path d="M27 31.818v-2.241c0-.07-.074-.175-.223-.315-.148-.14-.258-.21-.328-.21-.078 0-.215.101-.41.305l-.047-.047c0-.157.354-.485 1.062-.985.244-.172.472-.433.684-.785.047 0 .07.024.07.07 0 .055-.113.247-.339.575 0 .062.108.189.325.381.216.191.386.287.51.287l.336-.118.047.047c-.531.306-.797.506-.797.6v2.867c0 .141.082.28.247.418.164.137.289.205.375.205.093 0 .261-.133.503-.398l.047.07c0 .063-.201.295-.603.697-.403.403-.737.784-1.002 1.143l-.047-.07c0-.056.043-.134.129-.234.086-.101.129-.187.129-.259l-.141-.175c-.351-.328-.527-.645-.527-.95v-.644a4.325 4.325 0 0 1-1.008 1.16 7.15 7.15 0 0 0-1.137 1.148c-.054 0-.082-.023-.082-.07 0-.04.047-.118.141-.234.094-.116.141-.202.141-.258 0-.156-.148-.326-.444-.51-.295-.183-.502-.275-.62-.275-.071 0-.174.039-.308.117l-.058-.047c0-.062.079-.133.238-.211.38-.187.57-.461.57-.82v-2.59c0-.125-.061-.258-.182-.398-.122-.141-.218-.211-.286-.211-.128 0-.346.175-.657.527l-.046-.07c0-.142.248-.431.744-.868s.775-.656.838-.656l.046.071-.187.257.094.071c.351.196.527.442.527.74v3.254c0 .141.078.296.234.464.157.168.309.253.457.253.188 0 .516-.36.985-1.078ZM30.082 28.021c0-.641.057-1.106.171-1.395.114-.289.383-.59.808-.902.425-.313.661-.469.708-.469l.047.077-.023.052c-.274.249-.461.482-.563.7-.101.218-.152.607-.152 1.167v.77h.691c.102 0 .153.048.153.146 0 .098-.051.147-.153.147h-.691v1.95c0 1.018-.531 1.868-1.593 2.549a3.929 3.929 0 0 1-.2.118l-.035-.059.012-.082a4.36 4.36 0 0 0 .257-.153c.141-.086.27-.254.387-.505.117-.25.176-.728.176-1.433v-2.385h-.527c-.094 0-.141-.049-.141-.147 0-.098.047-.146.141-.146h.527Zm2.39 4.781.047.047c-.495.383-.908.742-1.238 1.078-.331.336-.515.504-.555.504l-.046-.047c.179-.209.269-.346.269-.41 0-.133-.114-.321-.343-.563-.229-.242-.565-.363-1.007-.363-.055 0-.194.078-.419.234-.063 0-.094-.027-.094-.082 0-.039.212-.188.635-.445.424-.258.761-.387 1.012-.387.196 0 .6.235 1.212.703.063 0 .152-.044.27-.134.117-.09.203-.135.257-.135Z" style="fill:#ccc5be;fill-rule:nonzero" transform="translate(-6.105 -18.107)"/><path d="M34.301 29.603c.155-.173.386-.381.693-.625.306-.244.545-.454.716-.631.171-.177.338-.426.501-.748.054 0 .082.031.082.094 0 .056-.043.166-.129.328 0 .148.074.293.221.433a.704.704 0 0 0 .5.211c.186 0 .465-.16.837-.48.055 0 .083.023.083.07-.297.261-.567.519-.809.775-.242.257-.5.385-.774.385-.195 0-.484-.18-.867-.539-.523.419-.875.743-1.054.973v1.969c0 .546.223.921.67 1.125l.15.12-.092.055c-.399.063-.782.395-1.15.994-.123.181-.216.264-.282.248.149-.311.223-.498.223-.562 0-.141-.085-.291-.255-.451-.171-.16-.31-.24-.418-.24a.88.88 0 0 0-.355.093c-.135.063-.222.094-.261.094-.047 0-.07-.027-.07-.082l.22-.141c.486-.203.729-.484.729-.843v-5.883c0-.656.205-1.219.615-1.688.41-.468.947-.703 1.612-.703.445 0 .804.121 1.078.364.273.242.41.503.41.785 0 .539-.217.808-.651.808a.604.604 0 0 1-.443-.183.634.634 0 0 1-.184-.467c0-.315.175-.516.523-.603l.145-.071c0-.086-.072-.184-.218-.293-.145-.109-.371-.164-.677-.164-.408 0-.73.114-.966.341-.236.228-.353.691-.353 1.389v3.743Zm2.449.644c0 .305.099.635.299.99.199.356.298.745.298 1.166 0 .532-.207 1.127-.621 1.788a9.225 9.225 0 0 1-1.441 1.775c-.547.523-.852.785-.914.785l-.047-.082.188-.187c1.312-1.162 1.968-2.258 1.968-3.288 0-.242-.08-.554-.24-.936-.16-.382-.24-.71-.24-.983 0-.585.18-1.102.54-1.55.359-.449.586-.673.679-.673.054 0 .082.023.082.07l-.071.082c-.32.36-.48.707-.48 1.043ZM47.32 23.989c-.336.297-.504.657-.504 1.079 0 .414.145.804.434 1.171l.117.118c.086.101.305.316.656.644.352.328.59.645.715.949.125.305.188.606.188.903 0 .812-.386 1.519-1.156 2.121l-.094.07-.048.024-.094.07c-.243.172-.412.258-.507.258l-.047-.047c.203-.11.352-.203.446-.281l.082-.071a.845.845 0 0 0 .14-.176l.094-.117c.195-.265.293-.586.293-.961 0-.265-.06-.529-.18-.791-.12-.261-.404-.599-.852-1.013-.448-.414-.738-.745-.869-.991a2.114 2.114 0 0 1-.244-.732l-.023-.094v-.199c0-.82.424-1.508 1.271-2.063.047-.031.086-.054.117-.07.257-.133.494-.234.712-.305.217-.07.346-.105.384-.105.047 0 .071.02.071.059-.438.156-.774.312-1.008.468l-.094.082Zm-.187-.129A4.252 4.252 0 0 0 45 23.286a5.629 5.629 0 0 0-.082.981c0 .762.09 1.392.269 1.89.172 0 .395-.015.668-.047.407-.046.871-.007 1.395.118.625.156 1.129.353 1.512.591.382.239.574.381.574.428l-.024.047-.093-.059a5.054 5.054 0 0 0-1.852-.878c-.375-.094-.871-.141-1.488-.141a6.47 6.47 0 0 0-.668.047c.172.484.549 1.037 1.131 1.658s.953 1.133 1.113 1.535c.16.403.26.819.299 1.248l.023.27v.187c.211.149.469.278.774.387.812-.844 1.218-1.934 1.218-3.27 0-.453-.062-.91-.187-1.371a1.785 1.785 0 0 1-.99-.656 1.707 1.707 0 0 1-.358-1.043c0-.164.024-.308.071-.433a3.994 3.994 0 0 0-.985-.786l-.187-.129Zm-2.075 2.333c-.211-.54-.316-1.18-.316-1.922 0-.344.023-.672.07-.985a2.96 2.96 0 0 0-1.3.387c.171.281.257.57.257.867 0 .203-.047.387-.14.551.497.18.805.57.923 1.172l.506-.07Zm-.726.105c-.07-.555-.332-.922-.785-1.102-.227.274-.446.411-.657.411-.125 0-.187-.067-.187-.2 0-.265.184-.398.551-.398.117 0 .199.008.246.023.062-.148.094-.332.094-.55 0-.243-.075-.493-.223-.75-.844.546-1.266 1.378-1.266 2.496 0 .289.063.562.188.82a8.037 8.037 0 0 1 2.039-.75Zm5.215.516c-.203-.696-.59-1.352-1.16-1.969a1.46 1.46 0 0 0-.047.363c0 .336.107.654.322.955.215.301.51.518.885.651Zm-6.141-1.653a1.347 1.347 0 0 0-.305-.023c-.148 0-.222.062-.222.187 0 .063.043.094.129.094.164 0 .297-.086.398-.258Zm.938 1.383v-.117a5.99 5.99 0 0 0-1.946.808c.219.321.5.481.844.481.305 0 .564-.113.779-.34.215-.226.323-.504.323-.832Zm6.199 4.817-.164-4.372h-.217c-.12 0-.274-.015-.463-.046.141.444.211.896.211 1.356 0 .693-.1 1.289-.299 1.788-.199.499-.521.998-.967 1.496.305.063.551.094.739.094.429 0 .816-.105 1.16-.316Zm.668-.61c.179-.258.269-.512.269-.762 0-.211-.066-.316-.199-.316-.141 0-.211.129-.211.387 0 .242.047.472.141.691Zm.932 1.16c-.483-.258-.821-.562-1.016-.914a2.68 2.68 0 0 1-.455.399v.632l-.052.176-.077-.726a2.152 2.152 0 0 1-1.113.304 3.413 3.413 0 0 1-1.653-.433c0 .281-.023.555-.07.822-.094.509-.246.937-.457 1.282-.25.4-.557.708-.92.924-.363.215-.713.323-1.049.323-.328 0-.586-.08-.773-.24-.188-.16-.282-.326-.282-.498 0-.336.139-.504.418-.504.19 0 .286.1.286.299 0 .138-.176.242-.528.311 0 .117.077.234.23.351.152.117.366.176.64.176.291 0 .612-.104.965-.311a2.82 2.82 0 0 0 .917-.896c.267-.406.427-.836.482-1.289.032-.274.047-.508.047-.703v-.164l-.24-.164-.069-.071-.092.024c-.092 0-.138-.067-.138-.2l-.024-.046-.097.023c-.138 0-.207-.055-.207-.164l.024-.094-.047-.047a.382.382 0 0 1-.235.071.65.65 0 0 1-.345-.106c-.114-.07-.182-.211-.205-.422.187.133.316.199.386.199a.226.226 0 0 0 .118-.035l-.356-.363h-.069c-.1 0-.15-.047-.15-.141l.035-.07-.105-.07h-.07c-.094 0-.141-.067-.141-.199a.364.364 0 0 0-.07-.094l-.094.023c-.102 0-.152-.062-.152-.187-.534-.485-1.102-.727-1.706-.727-.455 0-.813.1-1.076.299-.263.199-.394.373-.394.522 0 .046.078.07.234.07.164 0 .246.08.246.24 0 .152-.096.229-.287.229-.23 0-.345-.129-.345-.387 0-.266.149-.512.449-.738.3-.227.723-.34 1.268-.34s1.102.25 1.67.75l.105-.024c.094 0 .14.047.14.141v.07l.071.071.093-.024c.102 0 .153.047.153.141 0 .054-.02.09-.059.105a.319.319 0 0 1 .106.071l.093-.024c.094 0 .141.047.141.141l-.023.07.363.363a.172.172 0 0 0 .035-.105c0-.055-.051-.18-.152-.375.047-.031.134.01.263.123s.194.26.194.439c0 .078-.02.145-.059.2l.047.082a.15.15 0 0 1 .109-.047c.131 0 .196.062.196.187l-.024.071.046.023h.067c.089 0 .133.062.133.187l.082.082.118.071.046-.024-.023-.222a4.841 4.841 0 0 0-.305-1.301c-.164-.43-.541-.963-1.131-1.6-.589-.636-.966-1.177-1.13-1.623a5.566 5.566 0 0 0-.528.094v.176c0 .375-.127.679-.381.914a1.339 1.339 0 0 1-.943.351c-.383 0-.711-.16-.984-.48-1.118.772-1.676 1.603-1.676 2.491 0 .522.137.986.41 1.391l.117.163c.289.328.658.577 1.108.749a3.58 3.58 0 0 0 1.271.257c.711 0 1.309-.117 1.793-.352l.199-.058-.129.105a4.017 4.017 0 0 1-1.863.445c-.398 0-.828-.091-1.289-.275a3.576 3.576 0 0 1-1.184-.756l-.128-.129a2.495 2.495 0 0 1-.586-1.629c0-.976.606-1.84 1.82-2.59-.21-.328-.315-.738-.315-1.23 0-.469.128-.91.385-1.324a2.824 2.824 0 0 1 1.074-.996c-.156-.313-.234-.594-.234-.844 0-.258.057-.457.17-.598a.507.507 0 0 1 .404-.211c.203 0 .305.088.305.263 0 .13-.061.194-.183.194-.098 0-.182-.062-.251-.187-.203 0-.304.164-.304.492 0 .236.078.505.234.809.438-.219.91-.34 1.418-.364.172-.958.543-1.751 1.113-2.379a3.752 3.752 0 0 1 2.086-1.187c.188-.459.502-.822.944-1.087a2.756 2.756 0 0 1 1.447-.397c.656 0 1.217.197 1.682.591.464.395.697.885.697 1.471 0 .547-.215.981-.645 1.301.461.726.692 1.492.692 2.297 0 .859-.194 1.57-.58 2.133-.387.562-.92.91-1.6 1.043l.012 4.347c.148-.101.285-.23.41-.387a1.792 1.792 0 0 1-.199-.855c0-.203.041-.363.123-.48.082-.118.17-.176.263-.176.211 0 .317.179.317.539 0 .304-.114.605-.34.902.413.828 1.296 1.309 2.648 1.442 0-.571-.117-1.098-.351-1.582-.305-.094-.633-.286-.985-.575l.082.012c.235.211.52.367.856.469-.367-.68-.93-1.278-1.688-1.793l-.07-.059.047-.047c.055 0 .297.178.727.534.429.355.796.818 1.101 1.388.195.047.427.071.695.071.464 0 .854-.076 1.168-.228 0-.098.055-.147.164-.147l.071.023.117-.07-.023-.094c0-.094.055-.141.166-.141l.044.024.071-.106a.202.202 0 0 1-.071-.147c0-.121.063-.181.188-.181l.047-.164c-.094-.048-.141-.117-.141-.205 0-.097.039-.161.117-.193l-.023-.164c-.109-.024-.164-.079-.164-.165 0-.046.016-.085.047-.117l-.091-.152c-.096 0-.144-.051-.144-.152v-.071l-.07-.093-.094.023c-.093 0-.14-.061-.14-.182-.235-.16-.524-.24-.867-.24-.625 0-1.184.172-1.676.516l-.082.035-.024-.047c0-.055.19-.17.569-.346a2.858 2.858 0 0 1 1.213-.263c.343 0 .655.089.934.269l.091-.023c.09 0 .135.066.135.199.039.016.07.047.093.094h.082c.094 0 .141.047.141.14l-.023.094.097.129c.13 0 .196.06.196.181 0 .06-.032.105-.094.135l.023.176c.125.024.188.097.188.217 0 .105-.063.173-.188.205a.72.72 0 0 1-.047.211c.063.038.094.083.094.135 0 .113-.073.17-.22.17-.032.016-.064.056-.096.121l.023.073c0 .097-.058.146-.176.146h-.07a.349.349 0 0 1-.094.067v.079c0 .09-.054.135-.163.135a.158.158 0 0 1-.116-.047c-.303.164-.687.246-1.152.246-.249 0-.471-.023-.666-.07.242.484.363.988.363 1.511v.094l.549.024c.927 0 1.716-.28 2.366-.838.65-.559.976-1.311.976-2.256 0-.922-.309-1.676-.926-2.262-.617-.586-1.41-.879-2.379-.879-1.383 0-2.461.453-3.234 1.36l-.106.058c0-.047.141-.209.422-.486s.68-.526 1.195-.744c.516-.219 1.098-.328 1.746-.328 1.071 0 1.955.31 2.655.93.699.62 1.048 1.386 1.048 2.298 0 .991-.359 1.786-1.078 2.387-.718.6-1.589.9-2.613.9-.297 0-.504-.008-.621-.023a3.823 3.823 0 0 1-1.137 2.494c-.687.693-1.558 1.125-2.613 1.298.047.148.07.285.07.41 0 .783-.285 1.403-.857 1.861-.571.458-1.35.687-2.336.687-.798 0-1.486-.149-2.065-.446-.58-.296-1.014-.673-1.303-1.13-.29-.457-.435-.815-.435-1.073l.052-.105c.044 0 .065.043.065.129 0 .219.131.541.392.967.262.425.665.783 1.211 1.072.546.289 1.209.433 1.989.433.904 0 1.657-.214 2.258-.644.6-.43.9-.992.9-1.688 0-.14-.023-.285-.07-.433a6.388 6.388 0 0 1-.644.047c-.633 0-1.196-.114-1.688-.342-.492-.229-.738-.516-.738-.862 0-.157.092-.285.275-.383.184-.099.428-.148.733-.148.39 0 .787.135 1.189.405.402.269.701.607.897 1.013 1.101-.164 1.984-.56 2.648-1.189.664-.629 1.019-1.424 1.066-2.385a5.183 5.183 0 0 1-1.646-.48l-.105-.071Zm.099.071c-.266.445-.703.847-1.312 1.207a3.774 3.774 0 0 1-1.946.539 5.095 5.095 0 0 1-1.734-.282l-.094-.058c-.422-.172-.945-.535-1.57-1.09l-.235-.199-.07-.047c-.469-.453-.906-.764-1.312-.932a3.5 3.5 0 0 0-1.348-.252c-.602 0-1.106.176-1.512.528l-.094.105a1.459 1.459 0 0 0-.527 1.149c0 .117-.025.175-.077.175-.042 0-.064-.066-.064-.2 0-.455.176-.875.528-1.259l.106-.142c.751-.706 1.685-1.059 2.804-1.059.406 0 .836.083 1.29.248.453.166.96.465 1.519.899.559.433.905.697 1.038.791l.07.071c.728.52 1.439.78 2.135.78.884 0 1.647-.336 2.288-1.008.047-.062.086-.086.117-.07v.106Zm-2.18 4.054a2.357 2.357 0 0 0-.838-.926 2.058 2.058 0 0 0-1.13-.351c-.579 0-.868.137-.868.41 0 .281.205.504.616.668.41.164.9.246 1.47.246.188 0 .438-.015.75-.047Zm-9.574-3.395c0 .389.151.706.451.952.301.246.662.369 1.084.369.539 0 1.02-.195 1.442-.586l.093-.07.071.047c0 .062-.172.205-.516.427a1.97 1.97 0 0 1-1.09.334c-.492 0-.894-.137-1.207-.413-.312-.275-.469-.637-.469-1.085 0-.118.022-.177.064-.177.052 0 .077.067.077.202Zm11.59-11.277c.32-.265.48-.648.48-1.148 0-.602-.199-1.08-.597-1.436-.399-.355-.914-.533-1.547-.533-.5 0-.957.117-1.371.352a2.09 2.09 0 0 0-.903.972c.219-.031.403-.046.551-.046.649 0 1.272.16 1.869.48.598.32 1.104.773 1.518 1.359Zm-4.657 2.541c.42.275.731.533.934.776a.644.644 0 0 1 .548-.293c.171 0 .257.082.257.246 0 .125-.05.187-.149.187-.121 0-.188-.044-.2-.134-.011-.09-.047-.135-.108-.135-.109 0-.199.062-.27.187a5.246 5.246 0 0 1 1.254 2.086c.188.032.34.047.457.047h.235v-.117c0-.117.049-.176.146-.176.09 0 .135.059.135.176v.07a2.264 2.264 0 0 0 1.436-1.029c.339-.537.509-1.215.509-2.034 0-.756-.226-1.473-.679-2.152-.219.11-.45.165-.692.165-.422 0-.771-.131-1.049-.393-.277-.262-.416-.51-.416-.744 0-.086.037-.129.111-.129.083 0 .124.051.124.152 0 .203.107.418.322.645.215.226.514.34.896.34.243 0 .458-.047.645-.141-.797-1.094-1.867-1.641-3.211-1.641-.164 0-.371.016-.621.047a2.293 2.293 0 0 0-.047.41c0 .321.031.555.094.704.226.015.422.072.586.169.164.098.246.202.246.311 0 .141-.078.211-.234.211-.297 0-.536-.195-.715-.586-.223 0-.446.084-.668.251 0 .098-.055.147-.164.147l-.071-.023-.222.223.082.023c.047 0 .133-.039.258-.117.046 0 .07.019.07.059-.141.085-.235.177-.281.275-.047.098-.114.146-.2.146a.25.25 0 0 1-.14-.046c.031.023.047.061.047.113 0 .088-.053.133-.158.133a1.715 1.715 0 0 0-.1 1.084c.233.078.513.208.84.389l.163.118Zm2.337-1.005c0 .117.038.23.116.339.078.11.295.268.652.475.356.207.591.408.704.604.112.195.168.406.168.632 0 .446-.181.791-.543 1.037-.362.247-.704.37-1.027.37l-.047-.094.117-.047c.407-.086.61-.277.61-.574a.842.842 0 0 0-.128-.428c-.086-.145-.303-.352-.652-.621-.349-.27-.574-.492-.675-.668-.1-.176-.151-.35-.151-.522 0-.453.195-.808.585-1.066.39-.258.695-.387.915-.387.07 0 .106.024.106.071l-.118.07c-.421.195-.632.465-.632.809Zm-1.782-1.875c-.07-.172-.105-.399-.105-.68 0-.11.016-.242.047-.399-1.563.305-2.528 1.375-2.895 3.211.469 0 .907.071 1.313.211a2.2 2.2 0 0 1-.047-.373c0-.224.043-.456.129-.696a.158.158 0 0 1-.047-.116c0-.093.066-.147.199-.162a.194.194 0 0 1-.07-.155.31.31 0 0 1 .099-.22c.067-.068.127-.2.182-.399.039 0 .059.031.059.094l-.071.246.012.059.223-.205v-.057c0-.091.054-.137.162-.137l.092.024c.193-.14.432-.222.718-.246Zm.692.386c0-.047-.049-.099-.147-.158a1.055 1.055 0 0 0-.404-.123c.109.289.254.434.434.434.078 0 .117-.051.117-.153ZM61.594 32.357c-.234.335-.634.705-1.201 1.11-.459.325-.801.662-1.026 1.011l-.059.082c-.039 0-.058-.024-.058-.071 0-.061.084-.186.252-.375.168-.188.252-.325.252-.41l-.117-.176c-.493-.5-.739-1.16-.739-1.98 0-1.094.616-2.139 1.847-3.136.377-.3.749-.676 1.118-1.13l.047.047c0 .054-.152.269-.457.645.75.578 1.254.871 1.512.879.093.009.14.036.14.082-.422.226-.633.413-.633.561v2.582c0 .304.094.551.282.742.187.191.347.287.48.287.078 0 .238-.086.481-.258.039 0 .058.023.058.07 0 .047-.174.178-.521.393-.348.215-.76.584-1.237 1.107l-.023-.047c0-.062.129-.254.387-.574 0-.039-.06-.109-.179-.211-.404-.359-.606-.769-.606-1.23Zm-.012-.247v-2.718c0-.11-.122-.252-.364-.428-.243-.176-.407-.264-.492-.264-.093 0-.255.229-.486.686-.23.457-.346 1.014-.346 1.67 0 .531.093.959.28 1.283.186.324.403.486.651.486.256 0 .509-.238.757-.715ZM65.59 29.403a8.057 8.057 0 0 1 1.007-.99c.322-.26.568-.554.739-.885l.047.071-.176.398c0 .047.073.117.219.211.147.094.275.141.386.141.103 0 .21-.055.321-.164.047 0 .07.023.07.07-.156.221-.295.42-.416.598a1.217 1.217 0 0 1-.375.379.756.756 0 0 1-.381.113c-.156 0-.398-.149-.726-.445-.04 0-.133.075-.282.225-.148.15-.293.344-.433.583v2.567c0 .14.093.285.281.433.187.149.324.223.41.223.055 0 .215-.106.481-.317l.046.071c0 .039-.179.188-.539.445a7.367 7.367 0 0 0-.761.6 5.893 5.893 0 0 0-.586.701l-.047-.071c0-.039.051-.129.152-.269.102-.139.153-.237.153-.293 0-.055-.088-.188-.264-.398-.176-.211-.342-.317-.498-.317-.071 0-.199.047-.387.141l-.082-.047c0-.039.125-.12.375-.241s.375-.315.375-.582V29.64c0-.173-.076-.337-.228-.494-.153-.156-.268-.235-.346-.235-.125 0-.332.211-.621.633-.047 0-.071-.035-.071-.105 0-.178.319-.51.955-.996.318-.239.57-.556.756-.95.055 0 .082.024.082.071 0 .054-.101.246-.304.574.445.398.668.711.668.937v.328Z" style="fill:#ccc5be;fill-rule:nonzero" transform="translate(-6.105 -18.107)"/><path d="M72.34 29.099c.22-.284.517-.563.89-.838a7.43 7.43 0 0 0 .914-.779l.059.046-.316.387c0 .07.104.201.314.393.209.191.454.287.733.287.155 0 .384-.082.687-.246l.059.047a6.154 6.154 0 0 0-.856.641c-.203.19-.414.284-.633.284-.273 0-.525-.117-.756-.351-.23-.235-.365-.352-.404-.352-.047 0-.174.109-.381.327-.207.218-.31.394-.31.529v2.576c0 .288.182.521.548.7l.155.105-.071.047c-.473.103-.878.452-1.217 1.045-.086.151-.149.226-.189.226l-.047-.094.246-.422c0-.117-.109-.265-.327-.445-.218-.18-.378-.269-.481-.269-.039 0-.125.031-.258.093l-.047-.082.167-.117c.42-.202.63-.46.63-.771v-2.512a.719.719 0 0 0-.24-.55c-.16-.148-.287-.222-.381-.222-.086 0-.242.115-.469.344a2.944 2.944 0 0 0-.515.676v2.179c0 .295.211.594.632.897l-.082.048c-.355.071-.698.357-1.029.856-.11.167-.185.25-.225.25l-.046-.105.128-.199c0-.141-.095-.303-.286-.487-.191-.183-.317-.275-.378-.275-.054 0-.176.055-.367.164-.062 0-.094-.027-.094-.082l.128-.082c.485-.257.728-.58.728-.97v-2.372a.61.61 0 0 0-.211-.479c-.141-.125-.262-.187-.363-.187-.196 0-.403.184-.621.551l-.047-.106c0-.069.103-.223.31-.46.207-.237.458-.462.753-.675.295-.214.495-.472.602-.775l.046-.093c.054 0 .082.019.082.058 0 .077-.102.28-.305.61 0 .039.107.134.322.287a.727.727 0 0 1 .323.627v.55c.102-.225.414-.534.936-.926.523-.393.829-.647.919-.764.091-.117.202-.303.336-.56l.047.071c0 .069-.133.307-.399.715l.15.164c.338.273.507.562.507.867Zm2.215 5.051c-.032.015-.047 0-.047-.047 0-.057.066-.151.199-.282l-.129-.164c-.477-.422-.715-1.156-.715-2.203 0-.758.224-1.385.673-1.881.449-.496.74-.744.874-.744l.094.052-.059.065c-.484.296-.726.885-.726 1.765 0 .818.091 1.38.275 1.688.184.308.436.461.756.461.07 0 .215-.085.433-.257l.047.047c0 .039-.133.159-.401.36-.267.201-.692.58-1.274 1.14ZM78.762 27.892l.119.082c.905.469 1.357 1.301 1.357 2.496 0 .359-.106.748-.318 1.166-.212.418-.584.889-1.118 1.412-.534.523-.945.969-1.236 1.336l-.047-.07c.18-.272.27-.437.27-.493l-.14-.093c-.86-.516-1.29-1.274-1.29-2.274 0-.508.12-1.015.36-1.523s.643-1.01 1.209-1.506c.565-.496.953-.908 1.162-1.236l.047.07c0 .069-.125.28-.375.633Zm-.165 4.886c.25.008.446-.173.586-.543.141-.37.211-.816.211-1.338 0-.568-.166-1.073-.498-1.513-.332-.44-.638-.66-.92-.66-.187-.008-.349.208-.486.648-.137.44-.205.89-.205 1.35 0 .607.129 1.102.387 1.484.258.382.566.572.925.572ZM82.629 29.403a8.057 8.057 0 0 1 1.007-.99c.322-.26.568-.554.739-.885l.047.071-.176.398c0 .047.073.117.219.211.147.094.275.141.386.141.103 0 .21-.055.321-.164.047 0 .07.023.07.07-.156.221-.295.42-.416.598a1.217 1.217 0 0 1-.375.379.756.756 0 0 1-.381.113c-.156 0-.398-.149-.726-.445-.039 0-.133.075-.282.225-.148.15-.293.344-.433.583v2.567c0 .14.093.285.281.433.187.149.324.223.41.223.055 0 .215-.106.481-.317l.046.071c0 .039-.179.188-.539.445a7.367 7.367 0 0 0-.761.6 5.893 5.893 0 0 0-.586.701l-.047-.071c0-.039.051-.129.152-.269.102-.139.153-.237.153-.293 0-.055-.088-.188-.264-.398-.176-.211-.342-.317-.498-.317-.07 0-.199.047-.387.141l-.082-.047c0-.039.125-.12.375-.241s.375-.315.375-.582V29.64c0-.173-.076-.337-.228-.494-.153-.156-.268-.235-.346-.235-.125 0-.332.211-.621.633-.047 0-.071-.035-.071-.105 0-.178.319-.51.955-.996.318-.239.57-.556.756-.95.055 0 .082.024.082.071 0 .054-.101.246-.304.574.445.398.668.711.668.937v.328ZM87.433 27.974l.188.129c.562.32.844.691.844 1.113 0 .227-.072.463-.216.709-.143.246-.419.535-.827.867-.407.332-.689.608-.844.826l-.047-.047c0-.132.133-.324.4-.577.266-.253.44-.477.521-.671.081-.195.122-.385.122-.572a.845.845 0 0 0-.267-.624c-.178-.175-.302-.263-.372-.263-.178 0-.347.164-.506.491-.158.327-.238.826-.238 1.496 0 .654.172 1.145.514 1.472.343.327.719.491 1.127.491.101 0 .269-.137.504-.411.054 0 .082.04.082.118 0 .162-.404.494-1.212.996-.404.239-.657.428-.758.567a.89.89 0 0 0-.175.429c-.078 0-.117-.024-.117-.07 0-.208.152-.454.457-.739l-.152-.129c-.758-.492-1.137-1.242-1.137-2.25 0-.929.505-1.894 1.515-2.894.311-.297.545-.606.7-.926.055 0 .082.031.082.094-.125.209-.188.334-.188.375Z" style="fill:#ccc5be;fill-rule:nonzero" transform="translate(-6.105 -18.107)"/></svg>